<svg id="Group_89" data-name="Group 89" xmlns="http://www.w3.org/2000/svg" xmlns:xlink="http://www.w3.org/1999/xlink" width="533.37" height="157.914" viewBox="0 0 533.37 157.914">
  <defs>
    <clipPath id="clip-path">
      <rect id="Rectangle_53" data-name="Rectangle 53" width="533.37" height="157.914" fill="none"/>
    </clipPath>
  </defs>
  <g id="Group_89-2" data-name="Group 89" transform="translate(0 0)" clip-path="url(#clip-path)">
    <path id="Path_44" data-name="Path 44" d="M61.193,140.807C28.674,140.807,3.641,118.226.312,85.9.3,85.792.291,85.686.283,85.58-1.646,62.868,5.927,31.766,33.614,18.852a63.821,63.821,0,0,1,27.8-6.286A64.778,64.778,0,0,1,107.3,31.509a59.281,59.281,0,0,1,17.134,41.756c1.568,18.131-3.577,34.3-14.912,46.824C97.6,133.256,79.984,140.807,61.193,140.807Z" transform="translate(0 17.107)" fill="#183887"/>
    <path id="Path_45" data-name="Path 45" d="M71.792,156.726c-7.483-.293-16.924-4.4-19.41-22.31h.009c-.463-3.219-2.638-18.832-14.263-102.245C37.337,26.739,35.191,12.018,48.3,5.794A17.733,17.733,0,0,1,51.08,4.745,101.232,101.232,0,0,1,78.352.861c7.509,0,17.023,3.776,20.194,21.767.39,2.165.8,4.413,1.207,6.718a19.28,19.28,0,0,1,10.86-3.381A18.689,18.689,0,0,1,120.1,28.6a76.553,76.553,0,0,1,20.057,17.446c.319.394.621.8.907,1.221,7.771,11.446-.458,22.634-4.116,27.524-1.544,2.137-3.275,4.5-5.065,6.916,1.561,1.464,12.178,11.394,15.729,14.726,11.011,10.057,13.748,19.769,8.135,28.87A84.66,84.66,0,0,1,137.79,145.88a17.931,17.931,0,0,1-4.968,2.919,18.676,18.676,0,0,1-6.756,1.256h0c-4.923,0-9.028-1.839-12.737-4.206a18.418,18.418,0,0,1-9.826,6.487,122.171,122.171,0,0,1-30.75,4.4H72.5c-.236,0-.47,0-.706-.014" transform="translate(51.047 1.172)" fill="#183887"/>
    <path id="Path_46" data-name="Path 46" d="M181.984,156.351c-23.942,0-38.592-9.783-46.668-17.989a57.139,57.139,0,0,1-16.275-40.387A58.063,58.063,0,0,1,134.9,57.728c7-7.36,18.957-15.97,37.539-17.873l1.237-15.665c.375-5.063,1.533-20.764,16.147-23.67a17.425,17.425,0,0,1,2.317-.3C194.273.071,196.443,0,198.585,0a98.163,98.163,0,0,1,20.768,2.229c7.339,1.525,15.8,7.221,15.087,25.534l-4.054,102.894c-.451,21.255-12.964,24.478-18.336,24.875-.187.014-.371.026-.557.033q-3.16.135-6.312.137h0c-3.268,0-6.543-.113-9.762-.335a96,96,0,0,1-13.431.985" transform="translate(162.06 0)" fill="#183887"/>
    <path id="Path_47" data-name="Path 47" d="M189.752,156.263c-2.935,0-5.9-.1-8.827-.312-.4-.028-.793-.068-1.188-.125-5.965-.822-16.142-4.975-17.29-23.531-.024-.354-.035-.706-.035-1.058l-4.125-62.456c-.5-7.077.512-12.3,2.345-16.145a34.977,34.977,0,0,1-5.273-16.667C154.3,17.937,166.653,3.3,184.729,1.173c.177-.021.354-.038.534-.054.992-.085,1.972-.13,2.949-.13a33.637,33.637,0,0,1,30.464,47.844c3.459,5.238,4.442,11.8,4.711,15.585q1.01,15.9,2.087,31.879c.708,10.617,1.414,21.233,2.076,31.668,1.71,20.825-10.307,25.34-15.571,26.313a126.005,126.005,0,0,1-22.225,1.986Z" transform="translate(211.415 1.346)" fill="#183887"/>
    <path id="Path_48" data-name="Path 48" d="M234.781,140.673c-30.266,0-61.226-20.7-61.837-60.267,0-.109,0-.22,0-.331.066-22.8,10.331-53.128,39.043-63.552a63.847,63.847,0,0,1,22.568-4.083,64.714,64.714,0,0,1,47.967,21.087,59.11,59.11,0,0,1,15.2,45.109c-.019,17.21-5.92,32.259-17.1,43.577-11.594,11.729-28.3,18.459-45.827,18.459Z" transform="translate(235.437 16.937)" fill="#183887"/>
    <path id="Path_49" data-name="Path 49" d="M134.16,140.667a75.637,75.637,0,0,1-10.468-.72c-1.334-.184-2.7-.42-4.045-.687a17.911,17.911,0,0,1-8.683-4.4,17.945,17.945,0,0,1-9.62-3.894,53.262,53.262,0,0,1-13.786-17.573,17.947,17.947,0,0,1-1.653-4.86,17.942,17.942,0,0,1-2.319-4.4,116.14,116.14,0,0,1-4.269-15.181,18.037,18.037,0,0,1-.378-4.586A17.871,17.871,0,0,1,77.716,80c-.708-4.8-1.242-9.828-1.589-14.943a17.919,17.919,0,0,1,.3-4.678,18.012,18.012,0,0,1-.607-5.88c2.366-37.754,23.238-41.832,32.1-41.832.694,0,1.388.024,2.078.071a30.986,30.986,0,0,1,28.353,27.227l.512,4.047a18,18,0,0,1,.045,3.951,18.028,18.028,0,0,1,.874,3.384c.111-.043,28.466-9.871,28.466-9.871a17.954,17.954,0,0,1,23.812,17.8l-.486,10.359c-.014.342-.043.685-.076,1.025-.026.361-.047.72-.047,1.082,0,.269,0,.536-.019.8a18.406,18.406,0,0,1-.767,5.176,17.99,17.99,0,0,1,.316,4.314l-.718,15.115a18.03,18.03,0,0,1-.7,4.189,17.947,17.947,0,0,1-1.457,11.2,41.03,41.03,0,0,1-16.454,17.876C161.8,136.941,148.222,140.667,134.16,140.667Z" transform="translate(103.165 17.24)" fill="#183887"/>
    <path id="Path_50" data-name="Path 50" d="M115.939,88.974A17.954,17.954,0,0,1,98.306,74.412c-.059-.307-.116-.664-.163-1.011s-.094-.694-.125-1.044l-.035-.4c-.068-.687-.13-1.391-.17-2.125-2.444-36.708,20.419-59.252,42.7-64.567a33.549,33.549,0,0,1,7.75-.883c14.548,0,31.723,8.909,41.77,21.67,7.275,9.245,9.984,19.715,7.625,29.489C194.391,69.134,183.32,77.26,168.052,77.26a70.217,70.217,0,0,1-13.214-1.485,17.968,17.968,0,0,1-4.1,2.061L121.885,87.961a17.971,17.971,0,0,1-5.946,1.013" transform="translate(132.914 5.967)" fill="#183887"/>
    <path id="Path_51" data-name="Path 51" d="M96.135,63.71c.432-33.572-36.174-52.942-65.273-38.939C12.658,33.263,6.249,55.11,7.829,73.708c5.941,57.717,94.105,48.257,88.306-10M65.886,74.445c-3.07,11.632-24.414,11.956-28.1.664C35.941,66.8,36.534,51.717,47,50.066c16.948-3.089,22.638,9.712,18.886,24.379" transform="translate(10.344 27.458)" fill="#fff"/>
    <path id="Path_52" data-name="Path 52" d="M125.057,99.266c-8.8-8.258-18.688-17.467-27.467-25.744,4.364-5.96,10.215-13.734,14.525-19.71,0,0,4.38-5.854,3.733-6.805a58.875,58.875,0,0,0-15.4-13.391c-1.041-.628-6.319,5.134-6.319,5.134L77.716,56.074C75.456,43.4,72.8,28.085,70.5,15.392c0,0-1.221-6.928-2.423-6.928a83.221,83.221,0,0,0-22.44,3.195c-1.131.538-.09,7.684-.09,7.684S59.784,121.508,59.8,121.6c.09.647.987,6.787,2.335,6.841A103.989,103.989,0,0,0,88.4,124.667c1.507-.411.071-7.682.071-7.682-.808-4.812-2.189-12.3-3.015-17.073,7.431,5.653,16.409,12.369,23.824,18.1.035-.035,5.349,4.217,6.695,3.7A66.775,66.775,0,0,0,130.1,105.531c.666-1.077-5.044-6.265-5.044-6.265" transform="translate(61.411 11.523)" fill="#fff"/>
    <path id="Path_53" data-name="Path 53" d="M202.088,119.779l4.059-103.062s.274-7.051-.848-7.271A80,80,0,0,0,182.97,7.777c-1.218.243-1.752,7.478-1.752,7.478L178.651,47.7c-69.332-9.445-71.238,91.876,5.738,79.262a124.9,124.9,0,0,0,15.982.319c1.587-.116,1.717-7.5,1.717-7.5m-27.4-21.614c-18.726,3.046-21.833-10.957-15.989-18.024,5.866-7.07,17.637-2.834,17.637-2.834Z" transform="translate(172.411 10.351)" fill="#fff"/>
    <path id="Path_54" data-name="Path 54" d="M193.458,22.89A15.675,15.675,0,0,0,176.475,8.653c-20.268,2.387-16.586,31.829,2.73,31.2A15.67,15.67,0,0,0,193.458,22.89m5.835,96.044c-1.329-20.95-2.836-42.637-4.165-63.587,0,0-.484-6.8-1.849-6.857a118.51,118.51,0,0,0-26.551,1.419c-1.363.413-.878,7.342-.878,7.342l4.2,63.587h-.038s.413,6.659,1.832,6.857a107.492,107.492,0,0,0,26.516-1.419c1.544-.286.933-7.342.933-7.342" transform="translate(221.766 11.697)" fill="#fff"/>
    <path id="Path_55" data-name="Path 55" d="M207.759,23.047C188.873,29.9,180.6,51.127,180.544,69.777c.9,58.021,89.562,56.281,88.863-2.26,3.339-33.392-31.435-55.887-61.648-44.469m30.573,52.529c-4.076,11.327-25.366,9.783-28.06-1.778-1.112-8.454.791-23.427,11.365-24.164,17.162-1.58,21.722,11.67,16.695,25.942" transform="translate(245.787 27.287)" fill="#fff"/>
    <path id="Path_56" data-name="Path 56" d="M115.319,76.953q-.485-5.788-1.112-11.686L86.525,74.854a98.18,98.18,0,0,0,3.589,12.818L115.7,78.8a6.266,6.266,0,0,1-.378-1.849m20.322-19.118c.2,4.576.5,9.174.862,13.75l26.587-9.209.038-.017c0-.324,0-.647.017-.971,0-.933.054-1.868.125-2.819l.019-.125.484-10.357Zm.484,22.187-8.418,2.928L93.2,94.888a35.619,35.619,0,0,0,9.049,11.741l59.726-20.681.718-15.115ZM112.771,111.3c1,.2,2.028.375,3.07.519,12.888,1.814,27.34-.968,36.136-7.127a22.281,22.281,0,0,0,9.606-10.305Zm-1.077-67.519L83.689,53.491c.25,3.717.682,8.418,1.436,13.535l28.2-9.767c-.52-4.487-1.077-8.992-1.632-13.481m-1.509-11.92A13.043,13.043,0,0,0,98.409,20.3c-6.482-.449-13.715,4.04-15.025,24.972l27.3-9.443c-.163-1.327-.342-2.657-.5-3.967" transform="translate(113.517 27.592)" fill="#fff"/>
    <path id="Path_57" data-name="Path 57" d="M134.323,12.38C120.768,15.613,103.5,30.19,105.384,58.517c.035.666.106,1.294.161,1.9.019.09.019.163.035.253l28.849-10.126c.269-2.028,1.221-3.842,3.592-4.184,5.941-.808,28.327,9.174,31.829-5.384,3.518-14.577-21.973-31.829-35.527-28.6m16.605,20.053a4.345,4.345,0,1,1,4.345-4.345,4.361,4.361,0,0,1-4.345,4.345" transform="translate(143.273 16.317)" fill="#fff"/>
  </g>
</svg>
