<svg id="Group_96" data-name="Group 96" xmlns="http://www.w3.org/2000/svg" xmlns:xlink="http://www.w3.org/1999/xlink" width="533.37" height="157.914" viewBox="0 0 533.37 157.914">
  <defs>
    <clipPath id="clip-path">
      <rect id="Rectangle_54" data-name="Rectangle 54" width="533.37" height="157.914" fill="none"/>
    </clipPath>
  </defs>
  <g id="Group_90" data-name="Group 90" transform="translate(0 0)" clip-path="url(#clip-path)">
    <path id="Path_58" data-name="Path 58" d="M61.195,140.807C28.676,140.8,3.641,118.225.314,85.9c-.012-.106-.021-.213-.031-.319C-1.646,62.868,5.927,31.766,33.616,18.852a63.788,63.788,0,0,1,27.8-6.286A64.766,64.766,0,0,1,107.3,31.506a59.278,59.278,0,0,1,17.136,41.758c1.568,18.131-3.577,34.306-14.912,46.823C97.6,133.255,79.986,140.807,61.2,140.807Z" transform="translate(0 17.107)" fill="#a9277c"/>
    <path id="Path_59" data-name="Path 59" d="M71.791,156.725c-7.478-.293-16.917-4.4-19.408-22.3l.017,0c-.527-3.611-2.812-20.017-14.27-102.254C37.339,26.746,35.192,12.042,48.27,5.8a17.751,17.751,0,0,1,2.81-1.06A101.12,101.12,0,0,1,78.358.861c7.5,0,17.018,3.776,20.187,21.769.392,2.163.8,4.411,1.207,6.716a19.278,19.278,0,0,1,10.862-3.384,18.694,18.694,0,0,1,9.457,2.621,76.6,76.6,0,0,1,20.083,17.465c.319.392.621.8.9,1.218,7.776,11.441-.453,22.631-4.113,27.522-1.542,2.139-3.275,4.5-5.065,6.919,1.589,1.488,12.2,11.417,15.729,14.728,11,10.05,13.745,19.755,8.144,28.853a84.735,84.735,0,0,1-17.963,20.591,17.976,17.976,0,0,1-4.975,2.921,18.64,18.64,0,0,1-6.751,1.254h0c-4.926,0-9.03-1.84-12.737-4.208a18.418,18.418,0,0,1-9.826,6.487,121.973,121.973,0,0,1-30.75,4.406H72.5c-.236,0-.47,0-.706-.014" transform="translate(51.047 1.172)" fill="#a9277c"/>
    <path id="Path_60" data-name="Path 60" d="M181.986,156.35c-41.324,0-62.944-29.368-62.944-58.378a58.061,58.061,0,0,1,15.852-40.245c7-7.36,18.959-15.97,37.539-17.875l1.24-15.665c.375-5.063,1.533-20.759,16.142-23.668a17.511,17.511,0,0,1,2.319-.3C194.273.071,196.443,0,198.584,0a98.179,98.179,0,0,1,20.768,2.229c7.337,1.525,15.793,7.221,15.087,25.529l-4.054,102.9c-.453,21.276-12.98,24.483-18.362,24.875-.175.012-.349.024-.524.031q-3.174.138-6.345.139c-3.259,0-6.524-.113-9.738-.335a95.971,95.971,0,0,1-13.429.985" transform="translate(162.059 0)" fill="#a9277c"/>
    <path id="Path_61" data-name="Path 61" d="M189.74,156.264c-2.928,0-5.894-.106-8.81-.312-.409-.031-.815-.071-1.221-.13-5.955-.831-16.114-4.994-17.264-23.524-.021-.357-.033-.708-.033-1.06l-4.125-62.456c-.5-7.077.512-12.3,2.347-16.145a35,35,0,0,1-5.275-16.666C154.3,17.938,166.653,3.3,184.724,1.172c.179-.021.359-.038.538-.054q1.484-.128,2.949-.13a33.635,33.635,0,0,1,30.464,47.841c3.459,5.24,4.442,11.809,4.711,15.592q1.01,15.9,2.087,31.876c.708,10.617,1.412,21.231,2.076,31.666,1.712,20.8-10.288,25.33-15.542,26.31A126.522,126.522,0,0,1,189.74,156.264Z" transform="translate(211.413 1.345)" fill="#a9277c"/>
    <path id="Path_62" data-name="Path 62" d="M234.781,140.674c-30.266,0-61.225-20.7-61.837-60.267,0-.111,0-.222,0-.333.066-22.8,10.331-53.126,39.04-63.551A63.909,63.909,0,0,1,234.55,12.44a64.71,64.71,0,0,1,47.971,21.089,59.1,59.1,0,0,1,15.193,45.109c-.017,17.207-5.92,32.259-17.106,43.574-11.592,11.731-28.3,18.461-45.825,18.461Z" transform="translate(235.436 16.935)" fill="#a9277c"/>
    <path id="Path_63" data-name="Path 63" d="M134.16,140.666a75.637,75.637,0,0,1-10.468-.72c-1.346-.189-2.687-.42-4-.68a17.921,17.921,0,0,1-8.723-4.409,17.945,17.945,0,0,1-9.62-3.894,53.309,53.309,0,0,1-13.786-17.576,17.916,17.916,0,0,1-1.653-4.855,18,18,0,0,1-2.319-4.4,116.137,116.137,0,0,1-4.269-15.181,17.949,17.949,0,0,1-.378-4.588A17.882,17.882,0,0,1,77.716,80c-.708-4.8-1.242-9.826-1.589-14.943a17.918,17.918,0,0,1,.3-4.678,18.011,18.011,0,0,1-.607-5.88c2.366-37.753,23.238-41.832,32.1-41.832.694,0,1.388.024,2.078.071a30.981,30.981,0,0,1,28.353,27.226l.512,4.047a18,18,0,0,1,.045,3.951,18,18,0,0,1,.874,3.381c.111-.043,28.466-9.868,28.466-9.868a17.954,17.954,0,0,1,23.812,17.8l-.486,10.359c-.014.342-.043.685-.076,1.025-.026.361-.047.72-.047,1.082,0,.269,0,.536-.019.8a18.406,18.406,0,0,1-.767,5.176,17.99,17.99,0,0,1,.316,4.314l-.718,15.115a17.987,17.987,0,0,1-.7,4.187,17.945,17.945,0,0,1-1.457,11.2,41.03,41.03,0,0,1-16.454,17.876C161.806,136.94,148.221,140.666,134.16,140.666Z" transform="translate(103.164 17.24)" fill="#a9277c"/>
    <path id="Path_64" data-name="Path 64" d="M115.94,88.974A17.954,17.954,0,0,1,98.307,74.412c-.059-.307-.116-.664-.163-1.011s-.094-.694-.125-1.044l-.035-.4c-.066-.687-.13-1.4-.17-2.128-2.444-36.7,20.419-59.249,42.7-64.564a33.549,33.549,0,0,1,7.75-.883c14.548,0,31.723,8.909,41.77,21.67,7.275,9.245,9.984,19.715,7.625,29.489-3.268,13.592-14.338,21.717-29.607,21.717a70.216,70.216,0,0,1-13.214-1.485,17.968,17.968,0,0,1-4.1,2.061L121.886,87.961a17.971,17.971,0,0,1-5.946,1.013" transform="translate(132.915 5.967)" fill="#a9277c"/>
    <path id="Path_65" data-name="Path 65" d="M96.134,63.71c.432-33.571-36.174-52.942-65.273-38.939C12.658,33.262,6.249,55.11,7.829,73.708c5.941,57.716,94.1,48.257,88.305-10M65.885,74.445c-3.07,11.632-24.414,11.956-28.1.664C35.941,66.8,36.534,51.717,47,50.066c16.947-3.089,22.638,9.712,18.886,24.379" transform="translate(10.344 27.458)" fill="#fff"/>
    <path id="Path_66" data-name="Path 66" d="M125.057,99.265c-8.8-8.258-18.688-17.467-27.467-25.744,4.364-5.96,10.215-13.734,14.525-19.71,0,0,4.38-5.854,3.733-6.805a58.875,58.875,0,0,0-15.4-13.391c-1.041-.628-6.319,5.134-6.319,5.134L77.716,56.074C75.456,43.4,72.8,28.085,70.5,15.392c0,0-1.221-6.928-2.423-6.928a83.22,83.22,0,0,0-22.44,3.195c-1.131.538-.09,7.684-.09,7.684S59.784,121.507,59.8,121.6c.09.647.987,6.787,2.335,6.841A103.989,103.989,0,0,0,88.4,124.667c1.509-.411.071-7.682.071-7.682-.808-4.812-2.189-12.3-3.015-17.073,7.431,5.653,16.409,12.369,23.824,18.1.035-.035,5.348,4.217,6.694,3.7A66.775,66.775,0,0,0,130.1,105.53c.666-1.077-5.044-6.265-5.044-6.265" transform="translate(61.411 11.523)" fill="#fff"/>
    <path id="Path_67" data-name="Path 67" d="M202.088,119.778l4.059-103.062s.274-7.051-.848-7.271A80,80,0,0,0,182.97,7.776c-1.218.243-1.75,7.478-1.75,7.478L178.651,47.7c-69.332-9.445-71.238,91.876,5.738,79.261a124.9,124.9,0,0,0,15.982.319c1.587-.116,1.717-7.5,1.717-7.5m-27.4-21.614c-18.728,3.046-21.836-10.957-15.991-18.024,5.866-7.07,17.637-2.834,17.637-2.834Z" transform="translate(172.41 10.35)" fill="#fff"/>
    <path id="Path_68" data-name="Path 68" d="M193.459,22.889A15.675,15.675,0,0,0,176.476,8.652c-20.268,2.387-16.586,31.829,2.73,31.2a15.67,15.67,0,0,0,14.253-16.964m5.835,96.044c-1.329-20.95-2.836-42.637-4.165-63.587,0,0-.484-6.8-1.849-6.857a118.51,118.51,0,0,0-26.551,1.419c-1.363.413-.878,7.341-.878,7.341l4.2,63.587h-.035s.411,6.659,1.83,6.857a107.493,107.493,0,0,0,26.516-1.419c1.544-.286.933-7.341.933-7.341" transform="translate(221.765 11.696)" fill="#fff"/>
    <path id="Path_69" data-name="Path 69" d="M207.76,23.046C188.874,29.9,180.6,51.125,180.545,69.775c.9,58.021,89.562,56.281,88.863-2.26,3.339-33.392-31.434-55.886-61.648-44.469m30.573,52.528c-4.076,11.327-25.366,9.783-28.06-1.778-1.112-8.454.791-23.427,11.365-24.164,17.162-1.58,21.722,11.67,16.695,25.942" transform="translate(245.787 27.286)" fill="#fff"/>
    <path id="Path_70" data-name="Path 70" d="M115.319,76.953q-.485-5.788-1.112-11.686L86.525,74.854a98.176,98.176,0,0,0,3.589,12.817L115.7,78.8a6.266,6.266,0,0,1-.378-1.849m20.322-19.118c.2,4.576.5,9.174.862,13.75l26.587-9.209.038-.017c0-.323,0-.647.017-.971,0-.933.054-1.868.125-2.819l.019-.125.484-10.357Zm.484,22.187-8.418,2.928L93.2,94.888a35.62,35.62,0,0,0,9.049,11.741l59.726-20.681.718-15.115ZM112.771,111.3c1,.2,2.028.375,3.07.52,12.888,1.814,27.34-.968,36.136-7.127a22.281,22.281,0,0,0,9.606-10.3Zm-1.077-67.518L83.689,53.491c.25,3.717.682,8.418,1.436,13.535l28.2-9.767c-.52-4.487-1.077-8.992-1.632-13.481m-1.509-11.92A13.043,13.043,0,0,0,98.409,20.3c-6.482-.449-13.715,4.04-15.025,24.971l27.3-9.443c-.163-1.327-.342-2.657-.5-3.967" transform="translate(113.516 27.591)" fill="#fff"/>
    <path id="Path_71" data-name="Path 71" d="M134.322,12.38C120.768,15.613,103.5,30.19,105.384,58.517c.035.666.106,1.294.161,1.9.019.09.019.163.035.253l28.849-10.126c.269-2.028,1.221-3.842,3.592-4.184,5.941-.808,28.327,9.174,31.829-5.384,3.518-14.577-21.973-31.829-35.527-28.6m16.605,20.053a4.345,4.345,0,1,1,4.345-4.345,4.361,4.361,0,0,1-4.345,4.345" transform="translate(143.272 16.317)" fill="#fff"/>
  </g>
</svg>
