<svg id="activity" xmlns="http://www.w3.org/2000/svg" xmlns:xlink="http://www.w3.org/1999/xlink" width="45.01" height="39.971" viewBox="0 0 45.01 39.971">
  <defs>
    <clipPath id="clip-path">
      <rect id="Rectangle_58" data-name="Rectangle 58" width="45.01" height="39.971" fill="#fff"/>
    </clipPath>
  </defs>
  <g id="Group_104" data-name="Group 104" clip-path="url(#clip-path)">
    <path id="Path_83" data-name="Path 83" d="M10.385,15.567l3.148-1.753c.45-.251.894-.512,1.35-.751a2.338,2.338,0,1,1,2.253,4.1c-2.46,1.386-4.932,2.752-7.4,4.131-.34.19-.671.4-.995.613a2.469,2.469,0,0,1-3.591-.842q-2.4-4.288-4.786-8.587a2.347,2.347,0,1,1,4.086-2.285c.566,1,1.124,2.01,1.726,3.087.089-.2.15-.338.207-.474C9.293,5.8,14.461,1.462,21.927.264A19.959,19.959,0,0,1,28.685,39.6c-8.035,1.425-14.646-1.3-19.712-7.713a2.269,2.269,0,0,1,.261-2.881,2.321,2.321,0,0,1,2.95-.344,5.033,5.033,0,0,1,.846.861,15.332,15.332,0,1,0-2.566-14.26c-.018.058-.031.116-.079.3" transform="translate(0 -0.001)" fill="#fff"/>
    <path id="Path_84" data-name="Path 84" d="M241.978,96.8c0-1.469-.006-2.937,0-4.406a2.345,2.345,0,1,1,4.688.007q.012,3.843-.006,7.687a1.033,1.033,0,0,0,.345.812q2.979,2.953,5.934,5.929a2.348,2.348,0,1,1-3.283,3.349c-1.863-1.848-3.713-3.71-5.569-5.566-.387-.387-.761-.787-1.164-1.155a2.877,2.877,0,0,1-.951-2.3c.023-1.453.006-2.906.006-4.359Z" transform="translate(-219.298 -81.539)" fill="#fff"/>
  </g>
</svg>
