<svg xmlns="http://www.w3.org/2000/svg" width="39.908" height="40.914" viewBox="0 0 39.908 40.914">
  <g id="Group_188" data-name="Group 188" transform="translate(0.5 0.5)">
    <g id="Group_209" data-name="Group 209">
      <g id="aktivite" transform="translate(0 0)">
        <path id="Path_165" data-name="Path 165" d="M.021,81.068q0-7.011,0-14.022A2.873,2.873,0,0,1,3.1,63.954c.519,0,1.039-.009,1.558,0a.961.961,0,1,1,0,1.91c-.564.011-1.128,0-1.691,0a.951.951,0,0,0-1.047,1.052c-.011.593,0,1.187,0,1.781q0,13.132,0,26.263c0,.994.3,1.292,1.305,1.292H27.163c.993,0,1.173-.148,1.362-1.109a.947.947,0,0,1,1.034-.776.916.916,0,0,1,.841.927,2.782,2.782,0,0,1-2.674,2.832c-1.9.041-3.8.018-5.7.018-6.275,0-12.551-.034-18.825.019A3.05,3.05,0,0,1,0,94.956c.061-4.629.02-9.259.02-13.888" transform="translate(0 -58.258)" fill="#fff" stroke="#fff" stroke-width="1"/>
        <path id="Path_166" data-name="Path 166" d="M225.02,191.458a9.439,9.439,0,1,1,9.38,9.462,9.441,9.441,0,0,1-9.38-9.462m9.445,7.676a7.653,7.653,0,1,0-7.659-7.655,7.65,7.65,0,0,0,7.659,7.655" transform="translate(-204.989 -165.835)" fill="#fff" stroke="#fff" stroke-width="1"/>
        <path id="Path_167" data-name="Path 167" d="M83.564,11.4H76.219c-.89,0-1.2-.307-1.19-1.209a14.864,14.864,0,0,1,.112-2.571,4.5,4.5,0,0,1,3.385-3.631A.591.591,0,0,0,79,3.495a4.736,4.736,0,0,1,9.142.006c.059.219.113.387.383.464a4.711,4.711,0,0,1,3.6,4.667c.011.549.007,1.1,0,1.647-.009.769-.353,1.115-1.12,1.116q-3.717.005-7.434,0m6.665-1.915a10.93,10.93,0,0,0-.1-1.558A2.8,2.8,0,0,0,87.464,5.7c-.736-.069-.979-.312-1.052-1.053-.012-.118-.028-.236-.045-.353a2.838,2.838,0,0,0-5.636.282c-.049.731-.324,1.1-.95,1.109a2.972,2.972,0,0,0-2.809,3.793Z" transform="translate(-68.349 0)" fill="#fff" stroke="#fff" stroke-width="1"/>
        <path id="Path_168" data-name="Path 168" d="M71.418,192.031H77.2a3.942,3.942,0,0,1,.4.007.951.951,0,0,1,.02,1.9,3.055,3.055,0,0,1-.355.008h-11.7c-.841,0-1.286-.328-1.293-.948s.445-.967,1.273-.967h5.871" transform="translate(-58.553 -174.935)" fill="#fff" stroke="#fff" stroke-width="1"/>
        <path id="Path_169" data-name="Path 169" d="M70.46,321.963c-1.719,0-3.437.006-5.156,0a.956.956,0,0,1-1.036-.932.971.971,0,0,1,1.038-.978c.089,0,.178,0,.267,0h7.956c.711,0,1.423-.017,2.133.008a.953.953,0,0,1,.952.972.974.974,0,0,1-.954.931c-.118.009-.237,0-.355,0H70.46" transform="translate(-58.547 -291.553)" fill="#fff" stroke="#fff" stroke-width="1"/>
        <path id="Path_170" data-name="Path 170" d="M283.3,69.588c0,.95.005,1.9,0,2.849a.954.954,0,0,1-.946,1.059.967.967,0,0,1-.943-1.069c0-1.8,0-3.591,0-5.387,0-.8-.329-1.128-1.139-1.134-.519,0-1.039,0-1.558,0a.989.989,0,0,1-1.1-.964.973.973,0,0,1,1.074-.945,18.509,18.509,0,0,1,2.221.061,2.731,2.731,0,0,1,2.384,2.639c.03.964.006,1.929.006,2.893h.007" transform="translate(-252.9 -58.294)" fill="#fff" stroke="#fff" stroke-width="1"/>
        <path id="Path_171" data-name="Path 171" d="M69.995,257.982c-1.482,0-2.965,0-4.447,0a1.875,1.875,0,0,1-.612-.077.934.934,0,0,1,.017-1.76,2.184,2.184,0,0,1,.657-.073q4.425-.006,8.849,0a2.271,2.271,0,0,1,.571.058.932.932,0,0,1-.017,1.8,2.157,2.157,0,0,1-.527.053q-2.246.006-4.491,0" transform="translate(-58.597 -233.271)" fill="#fff" stroke="#fff" stroke-width="1"/>
        <path id="Path_172" data-name="Path 172" d="M282.8,250.7l3.562-4.346c.1-.126.2-.254.312-.377a.955.955,0,1,1,1.447,1.228c-.625.771-1.258,1.536-1.888,2.3q-1.282,1.564-2.565,3.128a.982.982,0,0,1-1.73.008q-1.231-1.491-2.45-2.993a.964.964,0,0,1,.041-1.422.951.951,0,0,1,1.434.229c.606.728,1.2,1.463,1.838,2.239" transform="translate(-254.347 -223.698)" fill="#fff" stroke="#fff" stroke-width="1"/>
      </g>
    </g>
  </g>
</svg>
