<svg id="assign" xmlns="http://www.w3.org/2000/svg" xmlns:xlink="http://www.w3.org/1999/xlink" width="40" height="40" viewBox="0 0 40 40">
  <defs>
    <clipPath id="clip-path">
      <rect id="Rectangle_90" data-name="Rectangle 90" width="40" height="40" transform="translate(0 -0.12)" fill="#fff"/>
    </clipPath>
  </defs>
  <g id="Group_169" data-name="Group 169" transform="translate(0 0.12)" clip-path="url(#clip-path)">
    <path id="Path_146" data-name="Path 146" d="M10.514,22.764c-.407-.51-.839-1-1.206-1.543a.776.776,0,0,1,.006-.641c.145-.307.458-.339.811-.238,0-.736,0-1.452,0-2.17,0-.129-.008-.258,0-.387a.616.616,0,0,1,.633-.6.609.609,0,0,1,.6.635c.014.682.006,1.367.006,2.051v.367a2.547,2.547,0,0,1,.718.226.518.518,0,0,1,.109.762c-.387.524-.807,1.025-1.216,1.535Z" transform="translate(9.088 16.949)" fill="#fff"/>
    <path id="Path_147" data-name="Path 147" d="M10.983,0c.409.508.841,1,1.21,1.533a.77.77,0,0,1-.01.641c-.145.3-.458.333-.813.232V4.613c0,.117.006.232,0,.347a.631.631,0,0,1-.631.6.618.618,0,0,1-.6-.635c-.014-.579,0-1.158-.006-1.737V2.428c-.1.014-.194.056-.258.028-.2-.089-.458-.159-.563-.321a.652.652,0,0,1,0-.6C9.68,1,10.11.508,10.519,0Z" transform="translate(9.083 0.046)" fill="#fff"/>
    <path id="Path_148" data-name="Path 148" d="M22.764,11.009c-.438.353-.877.7-1.313,1.059a.693.693,0,0,1-.847.163.665.665,0,0,1-.268-.837c-.789,0-1.561,0-2.332,0a1.255,1.255,0,0,1-.415-.056.561.561,0,0,1-.387-.674.571.571,0,0,1,.6-.5c.682-.008,1.367,0,2.049,0h.432a2.412,2.412,0,0,1,.1-.609.551.551,0,0,1,.819-.236c.539.387,1.047.821,1.567,1.236Z" transform="translate(16.904 9.103)" fill="#fff"/>
    <path id="Path_149" data-name="Path 149" d="M0,10.517c.51-.409,1-.845,1.539-1.208a.7.7,0,0,1,.66.028c.18.149.234.456.385.789H4.425c.143,0,.284,0,.426,0,.454.008.728.244.724.623s-.284.609-.74.613c-.658.006-1.315,0-1.971,0H2.446c.01.1.05.194.022.258-.089.2-.159.468-.321.561a.721.721,0,0,1-.635-.022C.986,11.8.5,11.379,0,10.981v-.464" transform="translate(0 9.131)" fill="#fff"/>
    <path id="Path_150" data-name="Path 150" d="M8.88,11.534H7.047V22.963c.129.006.264.02.4.02,4.26,0,8.523,0,12.779.012.379,0,.446-.127.44-.464-.022-.9-.008-1.8-.008-2.684h1.234c0,1.053.028,2.124-.014,3.191a1.3,1.3,0,0,1-1.426,1.184q-3.677.006-7.358,0-2.883,0-5.77,0a1.368,1.368,0,0,1-1.541-1.553q0-5.983.006-11.966a1.676,1.676,0,0,1,.143-.666c.452-1,.928-1.985,1.388-2.979.127-.276.288-.494.621-.5a.668.668,0,0,1,.635.478c.472,1.017.954,2.029,1.42,3.048a1.422,1.422,0,0,1,.121.557q.012,3.621,0,7.241c0,.512-.234.8-.635.787s-.6-.288-.6-.783V11.534M7.2,10.241H8.7c-.252-.537-.484-1.027-.754-1.6-.274.585-.51,1.085-.748,1.6" transform="translate(5.684 6.499)" fill="#fff"/>
    <path id="Path_151" data-name="Path 151" d="M21.893,13.242H20.656V10.108c-.934,0-1.833,0-2.733,0-1.119,0-1.6-.484-1.6-1.6q0-1.315-.008-2.632c0-.024-.02-.046-.038-.085H7.022c0,.49.02.976-.01,1.46a1.129,1.129,0,0,1-.22.476c-.238.377-.5.744-.736,1.119a1.7,1.7,0,0,1-.274.4V8.117c0-.736-.006-1.472,0-2.208A1.319,1.319,0,0,1,7.178,4.531c3.187,0,6.375-.008,9.562.014a1.231,1.231,0,0,1,.779.325C18.89,6.2,20.235,7.556,21.576,8.916a.955.955,0,0,1,.3.557c.026,1.261.014,2.525.014,3.768M17.587,6.8V8.849H19.64L17.587,6.8" transform="translate(5.684 4.499)" fill="#fff"/>
    <path id="Path_152" data-name="Path 152" d="M14.48,10.42c.018-.2.018-.278.034-.353a.618.618,0,0,1,1.224-.006.486.486,0,0,0,.776.313.615.615,0,0,1,.865.851.492.492,0,0,0,.335.791.617.617,0,0,1,.014,1.21.5.5,0,0,0-.335.815.584.584,0,0,1-.093.776.593.593,0,0,1-.781.054.489.489,0,0,0-.779.309.619.619,0,0,1-1.226,0,.484.484,0,0,0-.746-.327.617.617,0,0,1-.867-.871.488.488,0,0,0-.3-.738.6.6,0,0,1-.565-.625.59.59,0,0,1,.573-.611.5.5,0,0,0,.311-.714.61.61,0,0,1,.006-.843c.222-.254.51-.222.877-.046a1.724,1.724,0,0,0,.676.016m1.8,2.19a1.153,1.153,0,1,0-1.15,1.166,1.172,1.172,0,0,0,1.15-1.166" transform="translate(11.836 9.42)" fill="#fff"/>
    <path id="Path_153" data-name="Path 153" d="M8.6,9.664V8.456c.127-.006.24-.018.351-.018q3.442,0,6.884,0a.825.825,0,0,1,.51.107.749.749,0,0,1,.272.541,1.038,1.038,0,0,1-.377.522c-.077.071-.244.061-.371.061q-3.5.006-7,0c-.077,0-.153-.006-.27-.012" transform="translate(8.457 8.342)" fill="#fff"/>
    <path id="Path_154" data-name="Path 154" d="M3.173,7.022a2.45,2.45,0,0,1-.155.305A.612.612,0,0,1,1.951,7.2Q1.63,6.517,1.36,5.814a.605.605,0,0,1,.508-.881c.42-.063.845-.1,1.265-.159.331-.044.655-.06.851.286.186.325.044.591-.19.851.72.417,1.424.817,2.12,1.232a.613.613,0,0,1,.22.974.629.629,0,0,1-.873.079C4.583,7.8,3.9,7.416,3.217,7.029a.132.132,0,0,0-.044-.008" transform="translate(1.28 4.718)" fill="#fff"/>
    <path id="Path_155" data-name="Path 155" d="M18.685,5.91c-.244-.266-.371-.522-.2-.835.179-.331.476-.349.8-.305.434.06.871.1,1.305.161a.615.615,0,0,1,.52.9c-.153.395-.337.779-.5,1.174-.121.3-.268.565-.645.569s-.553-.226-.658-.591L17.5,8.034c-.135.077-.266.161-.407.224A.614.614,0,0,1,16.26,8a.587.587,0,0,1,.224-.807c.571-.351,1.156-.676,1.735-1.014.143-.083.288-.167.466-.272" transform="translate(15.913 4.719)" fill="#fff"/>
    <path id="Path_156" data-name="Path 156" d="M18.7,15.856c-.726-.418-1.4-.8-2.065-1.192-.426-.25-.553-.583-.365-.918s.547-.4.974-.159c.682.389,1.361.783,2.053,1.18.044-.1.06-.208.121-.25.179-.127.381-.315.565-.307a.756.756,0,0,1,.53.357,11.37,11.37,0,0,1,.6,1.378.619.619,0,0,1-.539.895c-.42.059-.845.1-1.267.155-.319.04-.629.046-.813-.288a.647.647,0,0,1,.2-.851" transform="translate(15.913 13.263)" fill="#fff"/>
    <path id="Path_157" data-name="Path 157" d="M6.987,3.172c.409.71.8,1.376,1.18,2.045.246.432.19.785-.143.978s-.684.063-.926-.351c-.4-.674-.785-1.357-1.188-2.051-.077.06-.131.133-.194.141-.216.03-.48.119-.641.03a.723.723,0,0,1-.311-.551A11.83,11.83,0,0,1,4.939,1.8a.59.59,0,0,1,.821-.458c.411.151.809.335,1.214.5.307.125.6.264.6.664,0,.377-.246.539-.585.662" transform="translate(4.685 1.323)" fill="#fff"/>
    <path id="Path_158" data-name="Path 158" d="M14.776,3.169c-.349-.121-.591-.294-.583-.668s.272-.524.571-.645c.407-.165.8-.351,1.212-.5a.6.6,0,0,1,.861.494c.071.458.111.92.171,1.38a.662.662,0,0,1-.313.764c-.313.165-.571.046-.829-.214-.355.617-.7,1.214-1.047,1.813-.077.133-.149.272-.236.4a.612.612,0,0,1-.845.2.6.6,0,0,1-.206-.843c.315-.575.653-1.138.982-1.708l.264-.472" transform="translate(13.216 1.323)" fill="#fff"/>
    <path id="Path_159" data-name="Path 159" d="M3.788,15.857c.24.258.369.512.206.827-.175.339-.476.355-.8.315-.434-.054-.871-.1-1.305-.159a.622.622,0,0,1-.528-.9c.159-.407.349-.8.512-1.21.117-.294.272-.532.627-.539.371-.008.551.226.666.587.6-.343,1.186-.68,1.771-1.017.135-.075.264-.161.4-.228a.61.61,0,0,1,.849.194.6.6,0,0,1-.226.867c-.492.3-1,.583-1.5.875l-.674.393" transform="translate(1.281 13.26)" fill="#fff"/>
    <path id="Path_160" data-name="Path 160" d="M5.916,18.68c.413-.714.805-1.392,1.194-2.073a.679.679,0,0,1,.674-.424.621.621,0,0,1,.444.966c-.315.575-.653,1.138-.982,1.708-.075.133-.151.268-.236.42a2.529,2.529,0,0,1,.355.206.6.6,0,0,1-.105,1,15.158,15.158,0,0,1-1.527.643.585.585,0,0,1-.793-.5c-.071-.458-.113-.92-.171-1.378a.666.666,0,0,1,.3-.768c.311-.167.571-.052.845.2" transform="translate(4.677 15.956)" fill="#fff"/>
    <path id="Path_161" data-name="Path 161" d="M14.778,19.3c-.409-.708-.8-1.376-1.18-2.045-.248-.432-.2-.777.135-.98s.682-.077.944.369c.377.645.75,1.291,1.125,1.938a.253.253,0,0,0,.048.046,2.228,2.228,0,0,1,.518-.208.57.57,0,0,1,.643.641c-.038.538-.1,1.077-.186,1.611a.6.6,0,0,1-.861.446c-.409-.155-.8-.345-1.21-.51-.3-.121-.559-.27-.563-.649s.242-.541.589-.658" transform="translate(13.219 15.954)" fill="#fff"/>
    <path id="Path_162" data-name="Path 162" d="M8.519,13.408c.067-.409.129-.785.2-1.2.081,0,.192-.018.305-.018,1.882,0,3.766,0,5.651-.006a.424.424,0,0,1,.458.284,6.569,6.569,0,0,0,.67.94Z" transform="translate(8.378 12.027)" fill="#fff"/>
    <path id="Path_163" data-name="Path 163" d="M15.114,9.7c-.091.387-.182.77-.282,1.19H8.606V9.7Z" transform="translate(8.463 9.582)" fill="#fff"/>
    <path id="Path_164" data-name="Path 164" d="M8.6,12.14V10.946h5.51c.071.4.141.787.212,1.194Z" transform="translate(8.46 10.81)" fill="#fff"/>
  </g>
</svg>
