<svg id="assignment" xmlns="http://www.w3.org/2000/svg" xmlns:xlink="http://www.w3.org/1999/xlink" width="31.997" height="43.168" viewBox="0 0 31.997 43.168">
  <defs>
    <clipPath id="clip-path">
      <rect id="Rectangle_60" data-name="Rectangle 60" width="31.997" height="43.168" fill="#fff"/>
    </clipPath>
  </defs>
  <g id="Group_108" data-name="Group 108" clip-path="url(#clip-path)">
    <path id="Path_90" data-name="Path 90" d="M.014,21.593c0-6,.025-12-.013-18A3.3,3.3,0,0,1,3.331,0C9.307.06,15.284.02,21.26.034A8.009,8.009,0,0,1,26.244,1.8a18.026,18.026,0,0,1,4.271,4.706,10.015,10.015,0,0,1,1.477,5.4q.01,13.955,0,27.912a3.08,3.08,0,0,1-3.1,3.345q-12.9.014-25.794,0c-1.853,0-3.083-1.4-3.084-3.464q0-9.051,0-18.1M29.647,9.465c-.137-.364-.2-.582-.3-.786a14.436,14.436,0,0,0-3.686-4.647,6.936,6.936,0,0,0-4.87-1.867c-5.821.016-11.643.006-17.464.006-.978,0-1.3.34-1.3,1.38q0,18.057,0,36.112c0,.987.334,1.352,1.233,1.352H28.732c.911,0,1.248-.358,1.247-1.336q-.006-12.847-.019-25.692a3.249,3.249,0,0,0-.064-.7A3.03,3.03,0,0,0,26.919,10.8c-1.28-.018-2.56,0-3.84-.008a.977.977,0,0,1-1.066-.96q-.041-2.274,0-4.551A.994.994,0,0,1,23,4.325a1.013,1.013,0,0,1,.975,1.017c.024.91.01,1.821.012,2.731v.54c1.9.167,3.819-.359,5.658.851" transform="translate(0 0)" fill="#fff"/>
    <path id="Path_91" data-name="Path 91" d="M16.218,28.142a11.338,11.338,0,0,1-4.6,1.795c-.8.095-1.1.488-1.3,1.236-.211.807-.513,1.588-.791,2.373-.266.755-.8,1.06-1.378.808-.556-.243-.743-.838-.487-1.57a88.693,88.693,0,0,0,2.959-10.1,32.415,32.415,0,0,0,.9-6.481,1.08,1.08,0,0,1,.785-1.158.992.992,0,0,1,1.178.744q1.414,3.546,2.818,7.1c.244.616.492,1.229.784,1.955.272-.331.475-.61.707-.855a.922.922,0,0,1,1.388-.058,1.127,1.127,0,0,1,.045,1.538A12.731,12.731,0,0,1,18.159,26.6a.477.477,0,0,0-.138.634c.476,1.153.927,2.316,1.385,3.478a1.147,1.147,0,0,1-.132,1.186.913.913,0,0,1-.971.35,1.111,1.111,0,0,1-.778-.8c-.424-1.082-.855-2.161-1.309-3.3m-.8-2.014-2.24-5.639c-.579,2.453-1.146,4.856-1.726,7.311a10.628,10.628,0,0,0,3.966-1.671" transform="translate(-1.515 -2.052)" fill="#fff"/>
    <path id="Path_92" data-name="Path 92" d="M28.027,28.4c.094.565.192,1.075.26,1.59.094.719-.217,1.235-.777,1.33-.607.105-1.06-.268-1.189-.982-.091-.509-.178-1.019-.262-1.5-.743,0-1.444.031-2.142-.009a1.078,1.078,0,0,1,.133-2.151c.528,0,1.055,0,1.64,0-.13-.761-.261-1.45-.361-2.143a2.177,2.177,0,0,1,.006-.8.956.956,0,0,1,1.01-.72,1.013,1.013,0,0,1,.9.883c.144.757.267,1.519.415,2.37.5-.2.974-.379,1.441-.578a1.007,1.007,0,0,1,1.469.487,1.123,1.123,0,0,1-.709,1.507c-.3.138-.606.267-.913.387-.292.113-.589.21-.921.327" transform="translate(-4.6 -3.145)" fill="#fff"/>
  </g>
</svg>
