<svg id="book_listened" data-name="book listened" xmlns="http://www.w3.org/2000/svg" xmlns:xlink="http://www.w3.org/1999/xlink" width="34.167" height="39.914" viewBox="0 0 34.167 39.914">
  <defs>
    <clipPath id="clip-path">
      <rect id="Rectangle_57" data-name="Rectangle 57" width="34.167" height="39.914" fill="#fff"/>
    </clipPath>
  </defs>
  <g id="Group_102" data-name="Group 102" clip-path="url(#clip-path)">
    <path id="Path_81" data-name="Path 81" d="M19.917,11.478a8.593,8.593,0,1,1-2.876.016V4.282c-.928.185-1.841.295-2.709.553C9.394,6.3,6.649,9.688,5.857,14.712A19.473,19.473,0,0,0,5.681,17.6a7.974,7.974,0,0,1-.318,2.23C4.692,22.1,4.053,24.383,3.4,26.663c-.036.125-.059.253-.1.416.746,0,1.46.047,2.166-.012a1.516,1.516,0,0,1,1.635,1.654c-.063,1.3-.018,2.612-.015,3.918a2.849,2.849,0,0,0,3,2.99c1.825,0,3.651,0,5.477,0a1.391,1.391,0,0,1,1.5,1.49c0,.416,0,.831,0,1.247a1.428,1.428,0,0,1-2.841.29c-.01-.043-.017-.087-.035-.177-1.294,0-2.6.017-3.9-.008A8.172,8.172,0,0,1,8.576,38.3a5.642,5.642,0,0,1-4.326-5.38c-.021-.977,0-1.954,0-2.987-.846,0-1.661-.055-2.466.012A1.562,1.562,0,0,1,.1,27.757c.93-2.984,1.747-6,2.591-9.014a3.932,3.932,0,0,0,.118-1.1,17.8,17.8,0,0,1,1.25-7.181A14,14,0,0,1,13.98,1.98c.985-.256,2.006-.376,3.059-.568.014-.064.037-.191.07-.315a1.422,1.422,0,0,1,2.806.286c.008.163,0,.327,0,.49q0,4.587,0,9.174c0,.146,0,.292,0,.432m-7.124,8.441a5.7,5.7,0,1,0,5.768-5.665,5.705,5.705,0,0,0-5.768,5.665" transform="translate(0 0)" fill="#fff"/>
    <path id="Path_82" data-name="Path 82" d="M252.528,41.917q0,5.543,0,11.087a1.42,1.42,0,0,1-2.109,1.357,1.44,1.44,0,0,1-.741-1.371q.008-4.453,0-8.905c0-4.274.039-8.55-.019-12.823a14.612,14.612,0,0,0-2.934-8.8,8.865,8.865,0,0,0-4.215-3.287,5.6,5.6,0,0,0-1.346-.252,1.461,1.461,0,0,1-1.457-1.479,1.426,1.426,0,0,1,1.545-1.376,8.309,8.309,0,0,1,4.588,1.62,15.334,15.334,0,0,1,5.7,7.91,19.086,19.086,0,0,1,.988,6.255q0,5.032,0,10.063" transform="translate(-218.362 -14.638)" fill="#fff"/>
  </g>
</svg>
