<svg id="book_count" data-name="book count" xmlns="http://www.w3.org/2000/svg" xmlns:xlink="http://www.w3.org/1999/xlink" width="44.019" height="39.914" viewBox="0 0 44.019 39.914">
  <defs>
    <clipPath id="clip-path">
      <rect id="Rectangle_56" data-name="Rectangle 56" width="44.019" height="39.914" fill="#fff"/>
    </clipPath>
  </defs>
  <g id="Group_99" data-name="Group 99" clip-path="url(#clip-path)">
    <path id="Path_79" data-name="Path 79" d="M0,90.21H1.376c0-.362,0-.668,0-.974q0-6.147,0-12.295c0-1.415.442-1.866,1.827-1.868q2.321,0,4.641,0c1.335,0,1.784.462,1.784,1.822q0,6.147,0,12.295v.972H12.38v-.976q0-9.543,0-19.087c0-1.477.421-1.9,1.872-1.907q2.235,0,4.469,0c1.506,0,1.911.414,1.911,1.955q0,9.457,0,18.915c0,.341,0,.682,0,1.085h2.75v-.916q0-7.523,0-15.046c0-1.417.437-1.86,1.83-1.864q2.277-.005,4.555,0c1.443,0,1.867.438,1.867,1.914q0,7.48,0,14.96v.97H34.39v-.978q0-11.564,0-23.128c0-1.593.393-1.992,1.959-1.994q2.192,0,4.383,0c1.5,0,1.912.42,1.912,1.956q0,11.521,0,23.042V90.21h1.376v2.752H0ZM39.835,66.885H37.183V90.168h2.652Zm-22.01,4.129h-2.65V90.169h2.65Zm8.37,19.128h2.65V75.114h-2.65ZM6.837,77.877H4.183V90.144H6.837Z" transform="translate(0 -53.048)" fill="#fff"/>
    <path id="Path_80" data-name="Path 80" d="M49.011,2.757c-.878,0-1.5.019-2.126,0A1.372,1.372,0,1,1,46.917.015q2.706-.03,5.412,0a1.265,1.265,0,0,1,1.359,1.334c.02,1.833.023,3.667,0,5.5a1.353,1.353,0,0,1-1.407,1.411A1.377,1.377,0,0,1,50.95,6.848c-.018-.314,0-.63-.005-.945s0-.625,0-1.151c-.331.313-.546.508-.752.713-2.512,2.511-5.038,5.008-7.524,7.544a1.882,1.882,0,0,1-2.3.515c-3.034-1.189-6.1-2.294-9.14-3.468a1.351,1.351,0,0,0-1.4.173q-5.376,3.622-10.789,7.188a1.852,1.852,0,0,1-1.157.427,1.758,1.758,0,0,1-1.154-.819,2.225,2.225,0,0,1,.21-1.408c.083-.225.422-.364.659-.523,3.832-2.56,7.675-5.1,11.491-7.686a2.182,2.182,0,0,1,2.237-.248c2.983,1.161,5.988,2.267,9,3.359a1.132,1.132,0,0,0,.964-.086c2.538-2.478,5.038-4.994,7.723-7.676" transform="translate(-13.804 0)" fill="#fff"/>
  </g>
</svg>
