<svg id="file-pdf" xmlns="http://www.w3.org/2000/svg" width="33.906" height="35" viewBox="0 0 33.906 35">
  <path id="file-pdf-2" data-name="file-pdf" d="M0,4.375A4.379,4.379,0,0,1,4.375,0H15.313V8.75A2.185,2.185,0,0,0,17.5,10.938h8.75v9.844H12.031a4.379,4.379,0,0,0-4.375,4.375V35H4.375A4.379,4.379,0,0,1,0,30.625ZM26.25,8.75H17.5V0ZM12.031,24.063h2.188a3.828,3.828,0,0,1,0,7.656H13.125v2.188a1.094,1.094,0,0,1-2.187,0v-8.75A1.1,1.1,0,0,1,12.031,24.063Zm2.188,5.469a1.641,1.641,0,0,0,0-3.281H13.125v3.281Zm6.563-5.469h2.188a3.282,3.282,0,0,1,3.281,3.281v4.375A3.282,3.282,0,0,1,22.969,35H20.781a1.1,1.1,0,0,1-1.094-1.094v-8.75A1.1,1.1,0,0,1,20.781,24.063Zm2.188,8.75a1.1,1.1,0,0,0,1.094-1.094V27.344a1.1,1.1,0,0,0-1.094-1.094H21.875v6.563Zm5.469-7.656a1.1,1.1,0,0,1,1.094-1.094h3.281a1.094,1.094,0,0,1,0,2.188H30.625v2.188h2.188a1.094,1.094,0,0,1,0,2.188H30.625v3.281a1.094,1.094,0,0,1-2.187,0v-8.75Z" fill="#fff"/>
</svg>
