<svg xmlns="http://www.w3.org/2000/svg" width="22.5" height="30" viewBox="0 0 22.5 30">
  <path id="file-audio" d="M3.75,27.188h15a.94.94,0,0,0,.938-.937V9.375H15A1.873,1.873,0,0,1,13.125,7.5V2.813H3.75a.94.94,0,0,0-.937.938v22.5A.94.94,0,0,0,3.75,27.188ZM0,3.75A3.753,3.753,0,0,1,3.75,0h9.7A3.751,3.751,0,0,1,16.1,1.1l5.3,5.3a3.751,3.751,0,0,1,1.1,2.654v17.2A3.753,3.753,0,0,1,18.75,30h-15A3.753,3.753,0,0,1,0,26.25ZM11.25,15.938v7.5a.938.938,0,0,1-.58.867A.928.928,0,0,1,9.65,24.1L7.582,22.031H6.563a.94.94,0,0,1-.937-.937V18.281a.94.94,0,0,1,.938-.937h1.02L9.65,15.275a.936.936,0,0,1,1.6.662Zm5.027-.234a7.977,7.977,0,0,1,0,7.969,1.407,1.407,0,0,1-2.437-1.406,5.152,5.152,0,0,0,0-5.156A1.407,1.407,0,0,1,16.277,15.7Z" fill="#fff"/>
</svg>
