<svg id="Group_156" data-name="Group 156" xmlns="http://www.w3.org/2000/svg" xmlns:xlink="http://www.w3.org/1999/xlink" width="22.126" height="30" viewBox="0 0 22.126 30">
  <defs>
    <clipPath id="clip-path">
      <rect id="Rectangle_86" data-name="Rectangle 86" width="22.126" height="30" fill="#fff" stroke="#fff" stroke-linejoin="bevel" stroke-width="1"/>
    </clipPath>
    <clipPath id="clip">
      <use xlink:href="#fill"/>
    </clipPath>
    <clipPath id="clip-2">
      <use xlink:href="#fill-2"/>
    </clipPath>
    <clipPath id="clip-3">
      <use xlink:href="#fill-3"/>
    </clipPath>
    <clipPath id="clip-4">
      <use xlink:href="#fill-4"/>
    </clipPath>
    <clipPath id="clip-5">
      <use xlink:href="#fill-5"/>
    </clipPath>
    <clipPath id="clip-6">
      <use xlink:href="#fill-6"/>
    </clipPath>
    <clipPath id="clip-7">
      <use xlink:href="#fill-7"/>
    </clipPath>
    <clipPath id="clip-8">
      <use xlink:href="#fill-8"/>
    </clipPath>
  </defs>
  <g id="Group_158" data-name="Group 158" transform="translate(0 0)" clip-path="url(#clip-path)">
    <path id="Path_138" data-name="Path 138" d="M19.873,5.253c-.6,0-1.206,0-1.8,0a1.56,1.56,0,0,0-1.815-1.475h-.677c0-.494,0-.944,0-1.394A1.481,1.481,0,0,0,14.01.827q-2.351,0-4.7,0a1.479,1.479,0,0,0-1.6,1.585c0,.447,0,.894,0,1.365-.351,0-.667-.005-.982,0-.8.013-1.307.5-1.508,1.474H3.478A2.468,2.468,0,0,0,.827,7.9q0,5.809,0,11.618v5.037c0,1.021,0,2.117,0,3.213A2.461,2.461,0,0,0,3.4,30.334q8.235,0,16.47,0a2.457,2.457,0,0,0,2.591-2.58q0-9.958,0-19.916a2.457,2.457,0,0,0-2.587-2.584M6.761,4.763c.45,0,.9,0,1.352,0,.4,0,.576-.181.579-.585,0-.594,0-1.188,0-1.782,0-.4.181-.581.582-.581q2.366,0,4.731,0c.4,0,.583.18.586.579,0,.594,0,1.188,0,1.782,0,.4.179.584.578.588.45,0,.9,0,1.352,0,.31.005.435.124.514.47H6.235a.494.494,0,0,1,.526-.471M17.018,6.244c-.02.335-.173.481-.525.483-.675.005-1.351,0-2.027,0H6.851c-.395,0-.524-.1-.6-.484Zm4.458,12.5q0,4.472,0,8.944a1.492,1.492,0,0,1-1.648,1.66H3.481a1.5,1.5,0,0,1-1.671-1.667c0-.6,0-1.193,0-1.8L1.8,25.89V20.476l.025.005a2.808,2.808,0,0,1-.024-.418c.024-4.047.013-8.094.013-12.14A1.5,1.5,0,0,1,3.493,6.236H5.227c.018.1.033.187.051.273a1.477,1.477,0,0,0,1.467,1.2q4.9.007,9.8,0c.817,0,1.348-.525,1.508-1.462.711,0,1.43-.042,2.141.012A1.442,1.442,0,0,1,21.476,7.8q0,5.471,0,10.942" transform="translate(-0.58 -0.58)" fill="#fff" stroke="#fff" stroke-linejoin="bevel" stroke-width="1"/>
    <g id="Path_139" data-name="Path 139" transform="translate(-0.58 -0.58)" fill="#fff" stroke-linejoin="bevel">
      <path d="M 5.863428592681885 6.67693042755127 C 5.820806980133057 6.593498706817627 5.788077831268311 6.50188684463501 5.76665735244751 6.403244972229004 C 5.755367279052734 6.35043478012085 5.745657444000244 6.295644760131836 5.735147476196289 6.236974716186523 C 5.729857444763184 6.207415103912354 5.7243971824646 6.176974773406982 5.718537330627441 6.145315170288086 L 5.700090885162354 6.045634746551514 L 5.75987720489502 6.342474937438965 C 5.785172462463379 6.468052387237549 5.819443702697754 6.579323291778564 5.863428592681885 6.67693042755127 Z M 17.49582290649414 6.450834274291992 C 17.50651168823242 6.394571781158447 17.51376724243164 6.335543632507324 17.51748657226562 6.273834705352783 L 17.54945755004883 5.743744850158691 L 17.01839828491211 5.743744850158691 L 6.25003719329834 5.743744850158691 L 5.644224166870117 5.743744850158691 L 5.642847537994385 5.736304759979248 L 5.630475044250488 5.736304759979248 L 5.6914381980896 5.440985679626465 L 5.64036750793457 5.733675003051758 L 6.235167503356934 5.733675003051758 L 17.03802680969238 5.733675003051758 L 17.65984725952148 5.733675003051758 L 17.6628246307373 5.747604846954346 L 17.6341381072998 5.747604846954346 L 17.5632266998291 6.16358470916748 C 17.54512405395508 6.269780158996582 17.52236366271973 6.365120410919189 17.49582290649414 6.450834274291992 Z" stroke="none"/>
      <path d="M 11.82292556762695 0.8257236480712891 C 12.55178642272949 0.8257236480712891 13.28092002868652 0.8261871337890625 14.00991725921631 0.8272953033447266 C 14.94710731506348 0.8293743133544922 15.5708179473877 1.450405120849609 15.57616806030273 2.383134841918945 C 15.57943725585938 2.833734512329102 15.57676696777344 3.283445358276367 15.57676696777344 3.777475357055664 L 16.2534065246582 3.777475357055664 C 17.36359786987305 3.776344299316406 17.83304786682129 4.152236938476562 18.06831741333008 5.252714157104492 C 18.66643714904785 5.252714157104492 19.26962661743164 5.251523971557617 19.87250709533691 5.252714157104492 C 21.41347694396973 5.256874084472656 22.45922660827637 6.297874450683594 22.45922660827637 7.837055206298828 C 22.46131706237793 14.47563552856445 22.46131706237793 21.11421585083008 22.45922660827637 27.75278472900391 C 22.45922660827637 29.28840446472168 21.40871810913086 30.33296585083008 19.8680477142334 30.33296585083008 C 14.37812805175781 30.33475494384766 8.888518333435059 30.33475494384766 3.398307800292969 30.33356475830078 C 1.884407043457031 30.33296585083008 0.8294277191162109 29.2771053314209 0.8267478942871094 27.7631950378418 C 0.8255577087402344 26.66777420043945 0.8267478942871094 25.57205581665039 0.8267478942871094 24.55068588256836 L 0.8267478942871094 19.5140552520752 C 0.8267478942871094 15.64125537872314 0.8261566162109375 11.76904487609863 0.8267478942871094 7.89654541015625 C 0.82763671875 6.277055740356445 1.85435676574707 5.254495620727539 3.478317260742188 5.253305435180664 C 4.060087203979492 5.252714157104492 4.64274787902832 5.252714157104492 5.219747543334961 5.252714157104492 C 5.420516967773438 4.280124664306641 5.924356460571289 3.792045593261719 6.728008270263672 3.778665542602539 C 7.043275833129883 3.773015975952148 7.359148025512695 3.778064727783203 7.710107803344727 3.778064727783203 C 7.710107803344727 3.306644439697266 7.708627700805664 2.859315872192383 7.710707664489746 2.412574768066406 C 7.71486759185791 1.434345245361328 8.323707580566406 0.8284854888916016 9.308187484741211 0.8272953033447266 C 10.14663028717041 0.8263378143310547 10.98464012145996 0.8257236480712891 11.82292556762695 0.8257236480712891 Z M 15.49897003173828 4.76190185546875 C 15.38994312286377 4.76190185546875 15.28091430664062 4.761554718017578 15.17196750640869 4.760475158691406 C 14.77311706542969 4.756305694580078 14.5967378616333 4.576065063476562 14.59435749053955 4.172454833984375 C 14.59138774871826 3.578195571899414 14.5967378616333 2.984834671020508 14.59257698059082 2.390565872192383 C 14.58989715576172 1.991714477539062 14.40876770019531 1.811775207519531 14.00694751739502 1.811775207519531 C 12.43027782440186 1.809394836425781 10.85361671447754 1.809394836425781 9.276357650756836 1.811775207519531 C 8.875137329101562 1.812374114990234 8.696677207946777 1.991125106811523 8.694297790527344 2.3929443359375 C 8.691317558288574 2.986614227294922 8.696677207946777 3.580875396728516 8.692507743835449 4.174835205078125 C 8.689537048339844 4.578744888305664 8.513167381286621 4.756305694580078 8.113127708435059 4.75987434387207 C 7.7906494140625 4.763498306274414 7.467720031738281 4.761322021484375 7.144985198974609 4.761322021484375 C 7.017051696777344 4.761322021484375 6.88914680480957 4.761663436889648 6.761318206787109 4.762844085693359 C 6.463888168334961 4.765525817871094 6.290487289428711 4.916614532470703 6.235166549682617 5.233675003051758 L 17.03802680969238 5.233675003051758 C 16.9586067199707 4.887174606323242 16.83339691162109 4.768505096435547 16.52377700805664 4.763444900512695 C 16.18241882324219 4.758489608764648 15.84057426452637 4.76190185546875 15.49897003173828 4.76190185546875 Z M 11.65503692626953 29.35012435913086 C 14.37969493865967 29.35012435913086 17.1043529510498 29.3499755859375 19.82878684997559 29.34967422485352 C 20.89178657531738 29.34967422485352 21.47682762145996 28.76047515869141 21.47682762145996 27.69003486633301 C 21.47742652893066 24.70861434936523 21.47682762145996 21.72750473022461 21.47682762145996 18.74609375 C 21.47682762145996 15.09874534606934 21.47801780700684 11.45139503479004 21.47623825073242 7.804044723510742 C 21.47623825073242 6.978084564208984 20.96317672729492 6.316314697265625 20.19699668884277 6.259204864501953 C 19.48614692687988 6.205661773681641 18.7675666809082 6.247604370117188 18.05611801147461 6.247604370117188 C 17.89639663696289 7.184505462646484 17.36489677429199 7.707975387573242 16.54815673828125 7.709165573120117 C 13.28062629699707 7.714815139770508 10.01308441162109 7.714225769042969 6.745258331298828 7.70976448059082 C 6.01298713684082 7.708574295043945 5.433307647705078 7.224355697631836 5.278047561645508 6.509344100952148 C 5.259607315063477 6.423084259033203 5.245326995849609 6.335945129394531 5.226886749267578 6.236305236816406 L 3.492887496948242 6.236305236816406 C 2.387058258056641 6.237194061279297 1.810047149658203 6.813905715942383 1.810047149658203 7.92242431640625 C 1.810047149658203 11.96921539306641 1.821647644042969 16.01601409912109 1.797256469726562 20.06280517578125 C 1.795766830444336 20.21032524108887 1.802606582641602 20.34922409057617 1.821046829223633 20.48068618774414 L 1.796367645263672 20.47563552856445 L 1.796367645263672 25.89029502868652 L 1.810047149658203 25.88226509094238 C 1.810047149658203 26.48991394042969 1.810047149658203 27.08655548095703 1.810636520385742 27.68259429931641 C 1.811237335205078 28.76850509643555 2.393007278442383 29.34967422485352 3.481287002563477 29.34967422485352 C 6.205722808837891 29.3499755859375 8.930379867553711 29.35012435913086 11.65503692626953 29.35012435913086 Z M 6.250038146972656 6.243745803833008 C 6.326776504516602 6.624744415283203 6.456457138061523 6.727354049682617 6.851137161254883 6.727954864501953 C 9.389387130737305 6.728546142578125 11.92762660980225 6.727958679199219 14.46646785736084 6.727954864501953 C 15.14192581176758 6.72795295715332 15.81767654418945 6.7318115234375 16.49313735961914 6.726764678955078 C 16.84499740600586 6.724384307861328 16.99816703796387 6.579235076904297 17.01839828491211 6.243745803833008 L 6.250038146972656 6.243745803833008 Z" stroke="none" fill="#fff"/>
    </g>
    <g id="Rectangle_78" data-name="Rectangle 78" transform="translate(7.144 11.573)" fill="#fff" stroke="#fff" stroke-linejoin="bevel" stroke-width="1">
      <rect id="fill" width="12.744" height="0.948" stroke="none"/>
      <path d="M0,0.4484953284263611h12.74445915222168M12.24445915222168,0v0.9484953284263611M12.74445915222168,0.5h-12.74445915222168M0.5,0.9484953284263611v-0.9484953284263611" fill="none" clip-path="url(#clip)"/>
    </g>
    <g id="Rectangle_79" data-name="Rectangle 79" transform="translate(7.144 11.573)" fill="#fff" stroke="#fff" stroke-linejoin="bevel" stroke-width="1">
      <rect id="fill-2" width="12.744" height="0.948" stroke="none"/>
      <path d="M0,0.4484953284263611h12.74445915222168M12.24445915222168,0v0.9484953284263611M12.74445915222168,0.5h-12.74445915222168M0.5,0.9484953284263611v-0.9484953284263611" fill="none" clip-path="url(#clip-2)"/>
    </g>
    <g id="Rectangle_80" data-name="Rectangle 80" transform="translate(7.15 18.951)" fill="#fff" stroke="#fff" stroke-linejoin="bevel" stroke-width="1">
      <rect id="fill-3" width="12.747" height="0.944" stroke="none"/>
      <path d="M0,0.4443312883377075h12.747435569763184M12.247435569763184,0v0.9443312883377075M12.747435569763184,0.5h-12.747435569763184M0.5,0.9443312883377075v-0.9443312883377075" fill="none" clip-path="url(#clip-3)"/>
    </g>
    <g id="Rectangle_81" data-name="Rectangle 81" transform="translate(7.15 18.951)" fill="#fff" stroke="#fff" stroke-linejoin="bevel" stroke-width="1">
      <rect id="fill-4" width="12.747" height="0.944" stroke="none"/>
      <path d="M0,0.4443312883377075h12.747435569763184M12.247435569763184,0v0.9443312883377075M12.747435569763184,0.5h-12.747435569763184M0.5,0.9443312883377075v-0.9443312883377075" fill="none" clip-path="url(#clip-4)"/>
    </g>
    <g id="Rectangle_82" data-name="Rectangle 82" transform="translate(7.144 26.326)" fill="#fff" stroke="#fff" stroke-linejoin="bevel" stroke-width="1">
      <rect id="fill-5" width="12.744" height="0.948" stroke="none"/>
      <path d="M0,0.4484955072402954h12.74445915222168M12.24445915222168,0v0.9484955072402954M12.74445915222168,0.5h-12.74445915222168M0.5,0.9484955072402954v-0.9484955072402954" fill="none" clip-path="url(#clip-5)"/>
    </g>
    <g id="Rectangle_83" data-name="Rectangle 83" transform="translate(7.144 26.326)" fill="#fff" stroke="#fff" stroke-linejoin="bevel" stroke-width="1">
      <rect id="fill-6" width="12.744" height="0.948" stroke="none"/>
      <path d="M0,0.4484955072402954h12.74445915222168M12.24445915222168,0v0.9484955072402954M12.74445915222168,0.5h-12.74445915222168M0.5,0.9484955072402954v-0.9484955072402954" fill="none" clip-path="url(#clip-6)"/>
    </g>
    <g id="Path_140" data-name="Path 140" transform="translate(-5.223 -20.326)" fill="#fff" stroke-linejoin="bevel">
      <path d="M 9.341547966003418 32.36933517456055 C 8.895097732543945 32.36933517456055 8.448587417602539 32.36843872070312 8.002297401428223 32.36643600463867 C 7.976963996887207 32.36631774902344 7.957586765289307 32.36478042602539 7.943266868591309 32.36290740966797 L 8.434297561645508 32.36290740966797 L 10.36252784729004 32.36290740966797 L 10.85458278656006 32.36290740966797 C 10.83829402923584 32.36480712890625 10.81680202484131 32.36630630493164 10.78918743133545 32.36642837524414 C 10.30664825439453 32.3682861328125 9.824117660522461 32.36933517456055 9.341547966003418 32.36933517456055 Z M 10.86252784729004 32.36128997802734 L 10.86252784729004 31.86290740966797 L 10.86252784729004 29.93230628967285 L 10.86252784729004 29.43742561340332 C 10.86313915252686 29.43749618530273 10.86374378204346 29.43756675720215 10.86433601379395 29.4376392364502 C 10.86637687683105 29.45129013061523 10.86814975738525 29.4700870513916 10.86845779418945 29.49498748779297 C 10.87213802337646 29.81828689575195 10.87124824523926 30.14905738830566 10.87037754058838 30.46893692016602 C 10.86999797821045 30.61261749267578 10.86960792541504 30.7563362121582 10.86960792541504 30.90013694763184 C 10.86960792541504 31.03579711914062 10.86986827850342 31.17148780822754 10.87012767791748 31.30718612670898 C 10.8707275390625 31.62529754638672 10.87135791778564 31.95423698425293 10.86843776702881 32.27626800537109 C 10.86812591552734 32.3145866394043 10.8654613494873 32.34223175048828 10.86252784729004 32.36128997802734 Z M 10.18464756011963 29.43230628967285 L 8.695707321166992 29.43230628967285 C 8.952879905700684 29.43159675598145 9.205638885498047 29.43123626708984 9.451948165893555 29.43123626708984 C 9.698405265808105 29.43123626708984 9.943285942077637 29.43159675598145 10.18464756011963 29.43230628967285 Z" stroke="none"/>
      <path d="M 9.452032089233398 28.93123626708984 C 9.908383369445801 28.93123626708984 10.36471748352051 28.93243026733398 10.82085800170898 28.93502807617188 C 11.18163776397705 28.93681716918945 11.36395835876465 29.12568664550781 11.36841773986816 29.48884582519531 C 11.37377738952637 29.95937728881836 11.36960792541504 30.42930603027344 11.36960792541504 30.90013694763184 C 11.36960792541504 31.36025619506836 11.37258720397949 31.82067680358887 11.36841773986816 32.28079605102539 C 11.36514854431152 32.68380737304688 11.18966770172119 32.86464691162109 10.79141807556152 32.86642456054688 C 9.860467910766602 32.86999893188477 8.930117607116699 32.87059783935547 8.000058174133301 32.86642456054688 C 7.621438026428223 32.86464691162109 7.438807487487793 32.67964935302734 7.437627792358398 32.29685974121094 C 7.43345832824707 31.36590766906738 7.43345832824707 30.43555641174316 7.437627792358398 29.50520706176758 C 7.439408302307129 29.12063598632812 7.619647979736328 28.93681716918945 7.999167442321777 28.93502807617188 C 8.483500480651855 28.93258285522461 8.967780113220215 28.93123626708984 9.452032089233398 28.93123626708984 Z M 10.36252784729004 31.86290740966797 L 10.36252784729004 29.93230628967285 L 8.434297561645508 29.93230628967285 L 8.434297561645508 31.86290740966797 L 10.36252784729004 31.86290740966797 Z" stroke="none" fill="#fff"/>
    </g>
    <g id="Path_141" data-name="Path 141" transform="translate(-5.223 -20.326)" fill="#fff" stroke-linejoin="bevel">
      <path d="M 9.341547966003418 32.36933517456055 C 8.895097732543945 32.36933517456055 8.448587417602539 32.36843872070312 8.002297401428223 32.36643600463867 C 7.976963996887207 32.36631774902344 7.957586765289307 32.36478042602539 7.943266868591309 32.36290740966797 L 8.434297561645508 32.36290740966797 L 10.36252784729004 32.36290740966797 L 10.85458278656006 32.36290740966797 C 10.83829402923584 32.36480712890625 10.81680202484131 32.36630630493164 10.78918743133545 32.36642837524414 C 10.30664825439453 32.3682861328125 9.824117660522461 32.36933517456055 9.341547966003418 32.36933517456055 Z M 10.86252784729004 32.36128997802734 L 10.86252784729004 31.86290740966797 L 10.86252784729004 29.93230628967285 L 10.86252784729004 29.43742561340332 C 10.86313915252686 29.43749618530273 10.86374378204346 29.43756675720215 10.86433601379395 29.4376392364502 C 10.86637687683105 29.45129013061523 10.86814975738525 29.4700870513916 10.86845779418945 29.49498748779297 C 10.87213802337646 29.81828689575195 10.87124824523926 30.14905738830566 10.87037754058838 30.46893692016602 C 10.86999797821045 30.61261749267578 10.86960792541504 30.7563362121582 10.86960792541504 30.90013694763184 C 10.86960792541504 31.03579711914062 10.86986827850342 31.17148780822754 10.87012767791748 31.30718612670898 C 10.8707275390625 31.62529754638672 10.87135791778564 31.95423698425293 10.86843776702881 32.27626800537109 C 10.86812591552734 32.3145866394043 10.8654613494873 32.34223175048828 10.86252784729004 32.36128997802734 Z M 10.18464756011963 29.43230628967285 L 8.695707321166992 29.43230628967285 C 8.952879905700684 29.43159675598145 9.205638885498047 29.43123626708984 9.451948165893555 29.43123626708984 C 9.698405265808105 29.43123626708984 9.943285942077637 29.43159675598145 10.18464756011963 29.43230628967285 Z" stroke="none"/>
      <path d="M 9.452032089233398 28.93123626708984 C 9.908383369445801 28.93123626708984 10.36471748352051 28.93243026733398 10.82085800170898 28.93502807617188 C 11.18163776397705 28.93681716918945 11.36395835876465 29.12568664550781 11.36841773986816 29.48884582519531 C 11.37377738952637 29.95937728881836 11.36960792541504 30.42930603027344 11.36960792541504 30.90013694763184 C 11.36960792541504 31.36025619506836 11.37258720397949 31.82067680358887 11.36841773986816 32.28079605102539 C 11.36514854431152 32.68380737304688 11.18966770172119 32.86464691162109 10.79141807556152 32.86642456054688 C 9.860467910766602 32.86999893188477 8.930117607116699 32.87059783935547 8.000058174133301 32.86642456054688 C 7.621438026428223 32.86464691162109 7.438807487487793 32.67964935302734 7.437627792358398 32.29685974121094 C 7.43345832824707 31.36590766906738 7.43345832824707 30.43555641174316 7.437627792358398 29.50520706176758 C 7.439408302307129 29.12063598632812 7.619647979736328 28.93681716918945 7.999167442321777 28.93502807617188 C 8.483500480651855 28.93258285522461 8.967780113220215 28.93123626708984 9.452032089233398 28.93123626708984 Z M 10.36252784729004 31.86290740966797 L 10.36252784729004 29.93230628967285 L 8.434297561645508 29.93230628967285 L 8.434297561645508 31.86290740966797 L 10.36252784729004 31.86290740966797 Z" stroke="none" fill="#fff"/>
    </g>
    <g id="Path_142" data-name="Path 142" transform="translate(-5.223 -37.752)" fill="#fff" stroke-linejoin="bevel">
      <path d="M 10.25929546356201 57.17118072509766 C 10.11254501342773 57.17118072509766 9.965775489807129 57.17088317871094 9.819015502929688 57.17059326171875 C 9.671605110168457 57.17030334472656 9.524205207824707 57.17001342773438 9.376845359802246 57.17001342773438 C 9.235875129699707 57.17001342773438 9.094915390014648 57.17030334472656 8.953945159912109 57.17059326171875 C 8.813674926757812 57.17088317871094 8.673395156860352 57.17118072509766 8.533115386962891 57.17118072509766 C 8.365984916687012 57.17118072509766 8.19881534576416 57.17076110839844 8.031684875488281 57.16944122314453 C 7.990609645843506 57.16913604736328 7.961422920227051 57.16617202758789 7.941694259643555 57.16297912597656 C 7.941665649414062 57.16276550292969 7.94163703918457 57.16255187988281 7.941608905792236 57.16233444213867 L 8.441144943237305 57.16233444213867 L 10.3803653717041 57.16233444213867 L 10.86359310150146 57.16233444213867 C 10.86352062225342 57.16284561157227 10.86344814300537 57.16334915161133 10.86337566375732 57.16384887695312 C 10.84530925750732 57.1666145324707 10.81926250457764 57.16912078857422 10.78337478637695 57.16944122314453 C 10.60915565490723 57.17076110839844 10.43424510955811 57.17118072509766 10.25929546356201 57.17118072509766 Z M 7.941145420074463 57.15864562988281 C 7.939233779907227 57.14278793334961 7.937705516815186 57.12153244018555 7.937625408172607 57.09389114379883 C 7.933475017547607 56.16897201538086 7.933475017547607 55.23133087158203 7.937615394592285 54.3062744140625 C 7.93773889541626 54.28036499023438 7.939257621765137 54.26035308837891 7.941145420074463 54.2453727722168 L 7.941145420074463 54.73858261108398 L 7.941145420074463 56.66233444213867 L 7.941145420074463 57.15864562988281 Z M 10.83775043487549 54.23858261108398 L 10.3803653717041 54.23858261108398 L 8.441144943237305 54.23858261108398 L 7.970049858093262 54.23858261108398 C 7.980332374572754 54.23791885375977 7.992068767547607 54.23748397827148 8.005385398864746 54.23742294311523 C 8.48753547668457 54.23527145385742 8.969554901123047 54.23423385620117 9.45174503326416 54.23423385620117 C 9.898375511169434 54.23423385620117 10.34517478942871 54.23512268066406 10.79187488555908 54.23684310913086 C 10.80967998504639 54.23691940307617 10.82488632202148 54.23759460449219 10.83775043487549 54.23858261108398 Z" stroke="none"/>
      <path d="M 9.451742172241211 53.73423385620117 C 9.899017333984375 53.73423385620117 10.34645080566406 53.73512649536133 10.79379558563232 53.73684310913086 C 11.19085502624512 53.73862075805664 11.36782455444336 53.92184448242188 11.36901473999023 54.3254508972168 C 11.37139511108398 55.24599075317383 11.37199592590332 56.16652297973633 11.3684253692627 57.08616256713867 C 11.36723518371582 57.48739242553711 11.18758583068848 57.66585159301758 10.78784561157227 57.6694221496582 C 10.31761455535889 57.67300415039062 9.847085952758789 57.67001342773438 9.376845359802246 57.67001342773438 C 8.927135467529297 57.67000961303711 8.477425575256348 57.67299652099609 8.027715682983398 57.6694221496582 C 7.622625350952148 57.66645431518555 7.438815116882324 57.49186325073242 7.437624931335449 57.09539413452148 C 7.433455467224121 56.16533279418945 7.433455467224121 55.23498153686523 7.437624931335449 54.30403137207031 C 7.43940544128418 53.92184448242188 7.621435165405273 53.73922348022461 8.003035545349121 53.73743438720703 C 8.486040115356445 53.73527145385742 8.968811988830566 53.73423385620117 9.451742172241211 53.73423385620117 Z M 10.3803653717041 56.66233444213867 L 10.3803653717041 54.73858261108398 L 8.441144943237305 54.73858261108398 L 8.441144943237305 56.66233444213867 L 10.3803653717041 56.66233444213867 Z" stroke="none" fill="#fff"/>
    </g>
    <g id="Path_143" data-name="Path 143" transform="translate(-5.223 -37.752)" fill="#fff" stroke-linejoin="bevel">
      <path d="M 10.25929546356201 57.17118072509766 C 10.11254501342773 57.17118072509766 9.965775489807129 57.17088317871094 9.819015502929688 57.17059326171875 C 9.671605110168457 57.17030334472656 9.524205207824707 57.17001342773438 9.376845359802246 57.17001342773438 C 9.235875129699707 57.17001342773438 9.094915390014648 57.17030334472656 8.953945159912109 57.17059326171875 C 8.813674926757812 57.17088317871094 8.673395156860352 57.17118072509766 8.533115386962891 57.17118072509766 C 8.365984916687012 57.17118072509766 8.19881534576416 57.17076110839844 8.031684875488281 57.16944122314453 C 7.990609645843506 57.16913604736328 7.961422920227051 57.16617202758789 7.941694259643555 57.16297912597656 C 7.941665649414062 57.16276550292969 7.94163703918457 57.16255187988281 7.941608905792236 57.16233444213867 L 8.441144943237305 57.16233444213867 L 10.3803653717041 57.16233444213867 L 10.86359310150146 57.16233444213867 C 10.86352062225342 57.16284561157227 10.86344814300537 57.16334915161133 10.86337566375732 57.16384887695312 C 10.84530925750732 57.1666145324707 10.81926250457764 57.16912078857422 10.78337478637695 57.16944122314453 C 10.60915565490723 57.17076110839844 10.43424510955811 57.17118072509766 10.25929546356201 57.17118072509766 Z M 7.941145420074463 57.15864562988281 C 7.939233779907227 57.14278793334961 7.937705516815186 57.12153244018555 7.937625408172607 57.09389114379883 C 7.933475017547607 56.16897201538086 7.933475017547607 55.23133087158203 7.937615394592285 54.3062744140625 C 7.93773889541626 54.28036499023438 7.939257621765137 54.26035308837891 7.941145420074463 54.2453727722168 L 7.941145420074463 54.73858261108398 L 7.941145420074463 56.66233444213867 L 7.941145420074463 57.15864562988281 Z M 10.83775043487549 54.23858261108398 L 10.3803653717041 54.23858261108398 L 8.441144943237305 54.23858261108398 L 7.970049858093262 54.23858261108398 C 7.980332374572754 54.23791885375977 7.992068767547607 54.23748397827148 8.005385398864746 54.23742294311523 C 8.48753547668457 54.23527145385742 8.969554901123047 54.23423385620117 9.45174503326416 54.23423385620117 C 9.898375511169434 54.23423385620117 10.34517478942871 54.23512268066406 10.79187488555908 54.23684310913086 C 10.80967998504639 54.23691940307617 10.82488632202148 54.23759460449219 10.83775043487549 54.23858261108398 Z" stroke="none"/>
      <path d="M 9.451742172241211 53.73423385620117 C 9.899017333984375 53.73423385620117 10.34645080566406 53.73512649536133 10.79379558563232 53.73684310913086 C 11.19085502624512 53.73862075805664 11.36782455444336 53.92184448242188 11.36901473999023 54.3254508972168 C 11.37139511108398 55.24599075317383 11.37199592590332 56.16652297973633 11.3684253692627 57.08616256713867 C 11.36723518371582 57.48739242553711 11.18758583068848 57.66585159301758 10.78784561157227 57.6694221496582 C 10.31761455535889 57.67300415039062 9.847085952758789 57.67001342773438 9.376845359802246 57.67001342773438 C 8.927135467529297 57.67000961303711 8.477425575256348 57.67299652099609 8.027715682983398 57.6694221496582 C 7.622625350952148 57.66645431518555 7.438815116882324 57.49186325073242 7.437624931335449 57.09539413452148 C 7.433455467224121 56.16533279418945 7.433455467224121 55.23498153686523 7.437624931335449 54.30403137207031 C 7.43940544128418 53.92184448242188 7.621435165405273 53.73922348022461 8.003035545349121 53.73743438720703 C 8.486040115356445 53.73527145385742 8.968811988830566 53.73423385620117 9.451742172241211 53.73423385620117 Z M 10.3803653717041 56.66233444213867 L 10.3803653717041 54.73858261108398 L 8.441144943237305 54.73858261108398 L 8.441144943237305 56.66233444213867 L 10.3803653717041 56.66233444213867 Z" stroke="none" fill="#fff"/>
    </g>
    <path id="Path_144" data-name="Path 144" d="M12.814,77.326l.732.706c-.07.077-.129.147-.193.211Q11.8,79.8,10.247,81.35c-.373.372-.579.37-.956,0L7.958,80.019l.711-.712,1.077,1.136,3.069-3.116" transform="translate(-5.591 -54.327)" fill="#fff" stroke="#fff" stroke-linejoin="bevel" stroke-width="1"/>
    <g id="Path_145" data-name="Path 145" transform="translate(-5.591 -54.327)" fill="#fff" stroke-linejoin="bevel">
      <path d="M 10.38881683349609 80.50180816650391 L 12.07888031005859 78.78553771972656 L 12.8233585357666 78.02950286865234 L 12.84208965301514 78.04757690429688 C 12.02458477020264 78.86599731445312 11.20707225799561 79.68417358398438 10.38881683349609 80.50180816650391 Z" stroke="none"/>
      <path d="M 12.81439018249512 77.32599639892578 C 13.09576034545898 77.59754943847656 13.31525993347168 77.80931854248047 13.54636001586914 78.03238677978516 C 13.47587013244629 78.10941314697266 13.41757011413574 78.17901611328125 13.35363006591797 78.24296569824219 C 12.31857967376709 79.27920532226562 11.28324031829834 80.31544494628906 10.24670028686523 81.35049438476562 C 9.874030113220215 81.72255706787109 9.667610168457031 81.72048187255859 9.290770530700684 81.34573364257812 C 8.849090576171875 80.90613555908203 8.40740966796875 80.46623992919922 7.958000183105469 80.01860809326172 C 8.198619842529297 79.77769470214844 8.419010162353516 79.55699920654297 8.668849945068359 79.30657958984375 C 9.027250289916992 79.68459320068359 9.377920150756836 80.05429840087891 9.745539665222168 80.44244384765625 C 10.78742980957031 79.38448333740234 11.79718971252441 78.35896301269531 12.81439018249512 77.32599639892578 Z" stroke="none" fill="#fff"/>
    </g>
    <g id="Rectangle_84" data-name="Rectangle 84" transform="translate(10.587 2.227)" fill="#fff" stroke="#fff" stroke-linejoin="bevel" stroke-width="1">
      <rect id="fill-7" width="0.947" height="0.953" stroke="none"/>
      <path d="M0,0.4529576897621155h0.9473062753677368M0.5,0v0.9529576897621155M0.9473062753677368,0.5h-0.9473062753677368M0.4473062753677368,0.9529576897621155v-0.9529576897621155" fill="none" clip-path="url(#clip-7)"/>
    </g>
    <g id="Rectangle_85" data-name="Rectangle 85" transform="translate(10.587 2.227)" fill="#fff" stroke="#fff" stroke-linejoin="bevel" stroke-width="1">
      <rect id="fill-8" width="0.947" height="0.953" stroke="none"/>
      <path d="M0,0.4529576897621155h0.9473062753677368M0.5,0v0.9529576897621155M0.9473062753677368,0.5h-0.9473062753677368M0.4473062753677368,0.9529576897621155v-0.9529576897621155" fill="none" clip-path="url(#clip-8)"/>
    </g>
  </g>
</svg>
