<svg xmlns="http://www.w3.org/2000/svg" xmlns:xlink="http://www.w3.org/1999/xlink" width="43.139" height="30" viewBox="0 0 43.139 30">
  <defs>
    <clipPath id="clip-path">
      <rect id="Rectangle_69" data-name="Rectangle 69" width="43.139" height="30" fill="#fff"/>
    </clipPath>
  </defs>
  <g id="Group_149" data-name="Group 149" transform="translate(0 0)">
    <g id="read" transform="translate(0 0)">
      <g id="Group_148" data-name="Group 148" clip-path="url(#clip-path)">
        <path id="Path_94" data-name="Path 94" d="M4.731,14.072c0-3.545.01-7.09-.01-10.635a1.188,1.188,0,0,1,.758-1.21A20.455,20.455,0,0,1,17.041.147a19.2,19.2,0,0,1,6.337,1.829.848.848,0,0,0,.819.016,20.108,20.108,0,0,1,18.082.319.99.99,0,0,1,.6.992q-.009,10.791-.006,21.581c0,.9-.578,1.241-1.368.831a17.879,17.879,0,0,0-9.736-1.882,21.779,21.779,0,0,0-7.38,1.908,1.451,1.451,0,0,1-1.282-.056,21.34,21.34,0,0,0-9.464-1.9A17.172,17.172,0,0,0,6.127,25.7c-.821.436-1.394.1-1.4-.837q-.006-5.4,0-10.79m1.626,9.61A.519.519,0,0,0,6.5,23.7a2.331,2.331,0,0,0,.244-.083,21,21,0,0,1,15.577.046,3.838,3.838,0,0,0,2.966-.006,21.087,21.087,0,0,1,14.9-.294c.334.119.665.245,1.055.389v-.742q0-9.416.011-18.831a.778.778,0,0,0-.554-.842,18.433,18.433,0,0,0-16.4.415,1.035,1.035,0,0,1-1.027-.006A18.423,18.423,0,0,0,6.838,3.364a.711.711,0,0,0-.492.776q.021,9.519.01,19.039v.5" transform="translate(-2.223 0)" fill="#fff"/>
        <path id="Path_95" data-name="Path 95" d="M41.513,31.175V9.336c0-.817.254-1.212.788-1.231.555-.019.837.4.837,1.233q0,11.386,0,22.771c0,1.105-.472,1.411-1.465.959a25.6,25.6,0,0,0-8.848-2.183,32.837,32.837,0,0,0-6.877.214c-.188.026-.371.078-.559.106a.567.567,0,0,0-.547.548,2.3,2.3,0,0,1-1.889,1.9,5.635,5.635,0,0,1-2.82-.039A2.327,2.327,0,0,1,18.3,31.664a.475.475,0,0,0-.46-.449c-.579-.094-1.156-.212-1.739-.263A28.649,28.649,0,0,0,1.69,32.969a1.481,1.481,0,0,0-.187.089c-.937.591-1.51-.066-1.5-.926C.039,27.516.018,22.9.017,18.283q0-4.487,0-8.974a2.465,2.465,0,0,1,.019-.516.774.774,0,0,1,.795-.681.772.772,0,0,1,.791.684,2.9,2.9,0,0,1,.019.568q0,10.581,0,21.162v.664c.644-.222,1.224-.432,1.811-.623a28.615,28.615,0,0,1,10.319-1.344c1.513.074,3.019.284,4.526.458a2.962,2.962,0,0,1,.825.292,1.19,1.19,0,0,1,.762,1.234.706.706,0,0,0,.615.828,13.209,13.209,0,0,0,2.151.014.639.639,0,0,0,.609-.718,1.354,1.354,0,0,1,1.186-1.518A20.063,20.063,0,0,1,27.5,29.3a31.436,31.436,0,0,1,10.944.9c1.009.283,2,.631,3.065.971" transform="translate(0 -3.816)" fill="#fff"/>
        <path id="Path_96" data-name="Path 96" d="M40.867,18.365q0,3.757,0,7.514a2.23,2.23,0,0,1-.024.516.8.8,0,0,1-1.576.01,1.927,1.927,0,0,1-.024-.464q0-7.566,0-15.132a2.692,2.692,0,0,1,.012-.414.812.812,0,0,1,.821-.715.8.8,0,0,1,.776.705,2.387,2.387,0,0,1,.015.465q0,3.757,0,7.514" transform="translate(-18.475 -4.557)" fill="#fff"/>
        <path id="Path_97" data-name="Path 97" d="M17.217,29.928a12.836,12.836,0,0,1,6.073,1.434c.372.193.655.5.514.9a1.427,1.427,0,0,1-.647.642c-.132.076-.407-.016-.582-.1a11.052,11.052,0,0,0-10.306.011.806.806,0,0,1-1.153-.314.791.791,0,0,1,.422-1.119,12.874,12.874,0,0,1,5.678-1.452" transform="translate(-5.187 -14.091)" fill="#fff"/>
        <path id="Path_98" data-name="Path 98" d="M17.3,17.376a12.608,12.608,0,0,1,5.922,1.4c.568.3.757.712.529,1.159s-.682.564-1.242.284a11.03,11.03,0,0,0-10.212.026.812.812,0,0,1-1.186-.323.8.8,0,0,1,.454-1.109A13.027,13.027,0,0,1,17.3,17.376" transform="translate(-5.188 -8.181)" fill="#fff"/>
        <path id="Path_99" data-name="Path 99" d="M17.335,11.1a12.577,12.577,0,0,1,5.884,1.4c.569.3.757.715.53,1.16s-.682.563-1.242.283a11.034,11.034,0,0,0-10.213.026.811.811,0,0,1-1.186-.323.8.8,0,0,1,.454-1.108A13.036,13.036,0,0,1,17.335,11.1" transform="translate(-5.188 -5.227)" fill="#fff"/>
        <path id="Path_100" data-name="Path 100" d="M58.956,13.284c.018.655-.583.972-1.256.7a19.472,19.472,0,0,0-2.559-.959,11.015,11.015,0,0,0-7.6.882c-.211.1-.5.244-.67.172a1.335,1.335,0,0,1-.668-.611.659.659,0,0,1,.425-.884,24.241,24.241,0,0,1,3.2-1.15,12.073,12.073,0,0,1,8.5,1.054c.481.246.625.436.636.8" transform="translate(-21.726 -5.221)" fill="#fff"/>
        <path id="Path_101" data-name="Path 101" d="M52.363,17.377a12.7,12.7,0,0,1,6,1.408c.565.295.746.716.509,1.167s-.68.549-1.248.265a11.013,11.013,0,0,0-10.164.016.838.838,0,0,1-1.206-.271c-.234-.446-.056-.892.5-1.176a12.984,12.984,0,0,1,5.611-1.409" transform="translate(-21.73 -8.182)" fill="#fff"/>
        <path id="Path_102" data-name="Path 102" d="M23.833,25.648c0,.709-.5,1.109-.99.979a2.6,2.6,0,0,1-.475-.2,11.03,11.03,0,0,0-9.936.014c-.214.1-.5.263-.668.192A1.4,1.4,0,0,1,11.054,26a.672.672,0,0,1,.449-.877,24.508,24.508,0,0,1,3.2-1.145A11.954,11.954,0,0,1,23.2,25.056a2.826,2.826,0,0,1,.636.592" transform="translate(-5.181 -11.129)" fill="#fff"/>
        <path id="Path_103" data-name="Path 103" d="M52.445,23.65a12.63,12.63,0,0,1,5.918,1.41c.566.3.746.718.509,1.167s-.677.548-1.247.264a11.019,11.019,0,0,0-10.164.016.841.841,0,0,1-1.208-.27c-.233-.443-.053-.891.5-1.176a13.035,13.035,0,0,1,5.691-1.411" transform="translate(-21.73 -11.135)" fill="#fff"/>
        <path id="Path_104" data-name="Path 104" d="M52.643,29.854a13.079,13.079,0,0,1,5.776,1.466.827.827,0,0,1,.531.957.723.723,0,0,1-.733.617,1.782,1.782,0,0,1-.724-.237,10.71,10.71,0,0,0-5.306-1.143,11.558,11.558,0,0,0-4.677,1.206,1.308,1.308,0,0,1-.633.168.73.73,0,0,1-.7-.658.8.8,0,0,1,.488-.883,12.241,12.241,0,0,1,3.916-1.277c.682-.1,1.372-.147,2.058-.217" transform="translate(-21.737 -14.056)" fill="#fff"/>
      </g>
    </g>
  </g>
</svg>
