<svg xmlns="http://www.w3.org/2000/svg" xmlns:xlink="http://www.w3.org/1999/xlink" width="29" height="29" viewBox="0 0 29 29">
  <defs>
    <clipPath id="clip-path">
      <rect id="Rectangle_70" data-name="Rectangle 70" width="29" height="29" transform="translate(0 -0.12)" fill="#183887"/>
    </clipPath>
  </defs>
  <g id="Group_150" data-name="Group 150" transform="translate(0 0.12)" clip-path="url(#clip-path)">
    <path id="Path_105" data-name="Path 105" d="M10.164,21.231c-.295-.37-.608-.728-.874-1.119a.563.563,0,0,1,0-.464c.1-.223.332-.246.588-.173,0-.533,0-1.053,0-1.573,0-.093-.006-.187,0-.28a.446.446,0,0,1,.459-.433.442.442,0,0,1,.433.46c.01.495,0,.991,0,1.487V19.4a1.847,1.847,0,0,1,.521.164.375.375,0,0,1,.079.552c-.28.38-.585.743-.881,1.113Z" transform="translate(4.047 7.528)" fill="#183887"/>
    <path id="Path_106" data-name="Path 106" d="M10.5,0c.3.368.61.725.877,1.112a.558.558,0,0,1-.007.464c-.1.22-.332.242-.59.168v1.6c0,.085,0,.168,0,.252a.458.458,0,0,1-.457.439.448.448,0,0,1-.434-.46c-.01-.42,0-.84,0-1.26V1.76c-.072.01-.141.04-.187.02-.145-.065-.332-.115-.408-.233a.472.472,0,0,1,0-.434C9.558.726,9.87.368,10.166,0Z" transform="translate(4.045)" fill="#183887"/>
    <path id="Path_107" data-name="Path 107" d="M21.231,10.514c-.318.256-.636.51-.952.768a.5.5,0,0,1-.614.118.482.482,0,0,1-.194-.607c-.572,0-1.132,0-1.691,0a.91.91,0,0,1-.3-.04.407.407,0,0,1-.28-.489A.414.414,0,0,1,17.63,9.9c.495-.006.991,0,1.485,0h.313a1.749,1.749,0,0,1,.072-.441.4.4,0,0,1,.594-.171c.391.28.759.6,1.136.9Z" transform="translate(7.528 4.034)" fill="#183887"/>
    <path id="Path_108" data-name="Path 108" d="M0,10.165c.37-.3.725-.613,1.116-.876a.5.5,0,0,1,.479.02c.131.108.17.331.279.572H3.208c.1,0,.206,0,.309,0,.329.006.528.177.525.452s-.206.441-.536.444c-.477,0-.953,0-1.429,0h-.3c.007.072.036.141.016.187-.065.145-.115.339-.233.407a.523.523,0,0,1-.46-.016C.715,11.1.362,10.791,0,10.5v-.336" transform="translate(0 4.046)" fill="#183887"/>
    <path id="Path_109" data-name="Path 109" d="M8.027,10.167H6.7v8.286c.093,0,.191.014.289.014,3.089,0,6.179,0,9.265.009.275,0,.324-.092.319-.336-.016-.653-.006-1.307-.006-1.946h.894c0,.764.02,1.54-.01,2.314a.944.944,0,0,1-1.034.858q-2.666,0-5.335,0-2.09,0-4.183,0a.992.992,0,0,1-1.117-1.126q0-4.338,0-8.675a1.215,1.215,0,0,1,.1-.483c.328-.723.673-1.439,1.007-2.16.092-.2.209-.358.45-.361a.484.484,0,0,1,.46.347c.342.738.692,1.471,1.03,2.21a1.031,1.031,0,0,1,.088.4q.009,2.625,0,5.25c0,.371-.17.578-.46.571s-.437-.209-.439-.568V10.167M6.811,9.229H7.9c-.183-.39-.351-.745-.546-1.159-.2.424-.37.787-.542,1.159" transform="translate(2.532 2.874)" fill="#183887"/>
    <path id="Path_110" data-name="Path 110" d="M17.462,10.846h-.9V8.574c-.677,0-1.329,0-1.982,0-.811,0-1.162-.351-1.162-1.16q0-.953-.006-1.908c0-.017-.014-.033-.027-.062H6.68c0,.355.014.707-.007,1.058a.819.819,0,0,1-.16.345c-.173.273-.359.539-.533.811a1.23,1.23,0,0,1-.2.29V7.13c0-.533,0-1.067,0-1.6a.956.956,0,0,1,1.011-1c2.311,0,4.622-.006,6.932.01a.892.892,0,0,1,.565.236c.994.965,1.969,1.947,2.941,2.933a.692.692,0,0,1,.22.4c.019.915.01,1.831.01,2.732M14.34,6.174V7.661h1.488L14.34,6.174" transform="translate(2.531 1.983)" fill="#183887"/>
    <path id="Path_111" data-name="Path 111" d="M13.808,10.176c.013-.145.013-.2.024-.256a.448.448,0,0,1,.887,0,.352.352,0,0,0,.562.227.446.446,0,0,1,.627.617.357.357,0,0,0,.243.574.447.447,0,0,1,.01.877.359.359,0,0,0-.243.591.424.424,0,0,1-.068.562.43.43,0,0,1-.567.039.354.354,0,0,0-.565.224.448.448,0,0,1-.889,0,.351.351,0,0,0-.541-.237.447.447,0,0,1-.628-.631.354.354,0,0,0-.216-.535.435.435,0,0,1-.41-.453.428.428,0,0,1,.416-.443.362.362,0,0,0,.226-.518.442.442,0,0,1,0-.611c.161-.184.37-.161.636-.033a1.25,1.25,0,0,0,.49.012m1.3,1.588a.836.836,0,1,0-.834.846.85.85,0,0,0,.834-.846" transform="translate(5.271 4.175)" fill="#183887"/>
    <path id="Path_112" data-name="Path 112" d="M8.6,9.326V8.45c.092,0,.174-.013.255-.013q2.5,0,4.991,0a.6.6,0,0,1,.37.078.543.543,0,0,1,.2.393.752.752,0,0,1-.273.378c-.056.052-.177.045-.269.045q-2.537,0-5.075,0c-.056,0-.111,0-.2-.009" transform="translate(3.766 3.695)" fill="#183887"/>
    <path id="Path_113" data-name="Path 113" d="M2.658,6.4a1.776,1.776,0,0,1-.112.221.444.444,0,0,1-.774-.093q-.233-.494-.429-1a.439.439,0,0,1,.368-.638c.3-.046.613-.075.917-.115.24-.032.475-.043.617.207s.032.429-.138.617c.522.3,1.032.592,1.537.893a.444.444,0,0,1,.16.706.456.456,0,0,1-.633.058c-.492-.286-.988-.565-1.483-.846A.1.1,0,0,0,2.658,6.4" transform="translate(0.57 2.081)" fill="#183887"/>
    <path id="Path_114" data-name="Path 114" d="M18,5.592c-.177-.193-.269-.378-.147-.605s.345-.253.581-.221c.315.043.631.072.946.116a.446.446,0,0,1,.377.656c-.111.286-.244.565-.359.851-.088.217-.194.41-.467.413s-.4-.164-.477-.429l-1.316.759c-.1.056-.193.116-.295.162a.445.445,0,0,1-.6-.185.426.426,0,0,1,.162-.585c.414-.255.838-.49,1.258-.735l.338-.2" transform="translate(7.087 2.081)" fill="#183887"/>
    <path id="Path_115" data-name="Path 115" d="M18.005,15.191c-.526-.3-1.012-.581-1.5-.864-.309-.181-.4-.423-.265-.666s.4-.29.706-.115c.495.282.986.568,1.488.856.032-.07.043-.151.088-.181.129-.092.276-.229.41-.223a.548.548,0,0,1,.384.259,8.243,8.243,0,0,1,.437,1,.449.449,0,0,1-.391.649c-.3.043-.613.075-.919.112-.232.029-.456.033-.59-.209a.469.469,0,0,1,.148-.617" transform="translate(7.087 5.886)" fill="#183887"/>
    <path id="Path_116" data-name="Path 116" d="M6.376,2.657c.3.515.578,1,.856,1.483.178.313.138.569-.1.709s-.5.046-.672-.255C6.169,4.1,5.887,3.61,5.6,3.107c-.056.043-.095.1-.141.1-.157.022-.348.086-.464.022a.524.524,0,0,1-.226-.4,8.577,8.577,0,0,1,.127-1.168.428.428,0,0,1,.6-.332c.3.109.587.243.88.364.223.091.431.191.434.482,0,.273-.178.391-.424.48" transform="translate(2.086 0.569)" fill="#183887"/>
    <path id="Path_117" data-name="Path 117" d="M14.408,2.655c-.253-.088-.429-.213-.423-.485s.2-.38.414-.467c.295-.119.582-.255.879-.365A.436.436,0,0,1,15.9,1.7c.052.332.081.667.124,1a.48.48,0,0,1-.227.554c-.227.119-.414.033-.6-.155-.257.447-.508.88-.759,1.314-.056.1-.108.2-.171.289a.444.444,0,0,1-.613.148.436.436,0,0,1-.15-.611c.229-.417.473-.825.712-1.238l.191-.342" transform="translate(5.886 0.569)" fill="#183887"/>
    <path id="Path_118" data-name="Path 118" d="M3.1,15.191c.174.187.267.371.15.6-.127.246-.345.257-.579.229-.315-.039-.631-.07-.946-.115a.451.451,0,0,1-.382-.656c.115-.295.253-.582.371-.877.085-.213.2-.385.454-.391s.4.164.483.426c.436-.249.86-.493,1.284-.738.1-.055.191-.116.292-.165a.442.442,0,0,1,.615.141.435.435,0,0,1-.164.628c-.357.22-.725.423-1.089.634l-.489.285" transform="translate(0.571 5.885)" fill="#183887"/>
    <path id="Path_119" data-name="Path 119" d="M5.6,17.992c.3-.518.584-1.009.866-1.5a.493.493,0,0,1,.489-.308.45.45,0,0,1,.322.7c-.229.417-.473.825-.712,1.238-.055.1-.109.194-.171.3a1.833,1.833,0,0,1,.257.15.434.434,0,0,1-.076.728,10.989,10.989,0,0,1-1.107.466A.424.424,0,0,1,4.89,19.4c-.052-.332-.082-.667-.124-1a.483.483,0,0,1,.219-.556c.226-.121.414-.037.613.144" transform="translate(2.083 7.086)" fill="#183887"/>
    <path id="Path_120" data-name="Path 120" d="M14.411,18.44c-.3-.513-.578-1-.856-1.483-.18-.313-.142-.564.1-.71s.495-.056.684.267c.273.467.544.936.815,1.4a.183.183,0,0,0,.035.033,1.615,1.615,0,0,1,.375-.151.414.414,0,0,1,.466.464c-.027.39-.07.781-.135,1.168a.436.436,0,0,1-.624.324c-.3-.112-.582-.25-.877-.37-.219-.088-.406-.2-.408-.47s.175-.393.427-.477" transform="translate(5.887 7.085)" fill="#183887"/>
    <path id="Path_121" data-name="Path 121" d="M8.519,13.071c.049-.3.093-.569.142-.87.059,0,.139-.013.221-.013,1.365,0,2.731,0,4.1,0a.308.308,0,0,1,.332.206,4.762,4.762,0,0,0,.486.682Z" transform="translate(3.731 5.336)" fill="#183887"/>
    <path id="Path_122" data-name="Path 122" d="M13.324,9.7c-.066.28-.132.558-.2.863H8.606V9.7Z" transform="translate(3.769 4.247)" fill="#183887"/>
    <path id="Path_123" data-name="Path 123" d="M8.6,11.812v-.866H12.6c.052.292.1.571.154.866Z" transform="translate(3.768 4.794)" fill="#183887"/>
  </g>
</svg>
