<svg xmlns="http://www.w3.org/2000/svg" xmlns:xlink="http://www.w3.org/1999/xlink" width="28.759" height="20" viewBox="0 0 28.759 20">
  <defs>
    <clipPath id="clip-path">
      <rect id="Rectangle_69" data-name="Rectangle 69" width="28.759" height="20" fill="#183887"/>
    </clipPath>
  </defs>
  <g id="Group_148" data-name="Group 148" clip-path="url(#clip-path)">
    <path id="Path_94" data-name="Path 94" d="M4.728,9.381c0-2.363.006-4.727-.007-7.09a.792.792,0,0,1,.506-.807A13.637,13.637,0,0,1,12.934.1a12.8,12.8,0,0,1,4.225,1.219.566.566,0,0,0,.546.011,13.405,13.405,0,0,1,12.054.213.66.66,0,0,1,.4.661q-.006,7.194,0,14.387c0,.6-.385.827-.912.554a11.919,11.919,0,0,0-6.491-1.254,14.519,14.519,0,0,0-4.92,1.272.968.968,0,0,1-.854-.037,14.226,14.226,0,0,0-6.309-1.27,11.448,11.448,0,0,0-5.008,1.279c-.547.29-.93.066-.93-.558q0-3.6,0-7.193m1.084,6.406a.346.346,0,0,0,.1.011,1.554,1.554,0,0,0,.163-.055,14,14,0,0,1,10.384.031,2.559,2.559,0,0,0,1.977,0,14.058,14.058,0,0,1,9.934-.2c.223.079.443.163.7.26v-.495q0-6.277.007-12.554a.518.518,0,0,0-.369-.562A12.289,12.289,0,0,0,17.779,2.5a.69.69,0,0,1-.684,0A12.282,12.282,0,0,0,6.132,2.243.474.474,0,0,0,5.8,2.76q.014,6.346.007,12.693v.334" transform="translate(-3.055 0)" fill="#183887"/>
    <path id="Path_95" data-name="Path 95" d="M27.675,23.485V8.926c0-.544.169-.808.526-.821s.558.264.558.822q0,7.59,0,15.18c0,.737-.315.941-.977.64a17.069,17.069,0,0,0-5.9-1.456,21.891,21.891,0,0,0-4.584.143c-.125.017-.248.052-.373.071a.378.378,0,0,0-.364.365A1.533,1.533,0,0,1,15.3,25.139a3.756,3.756,0,0,1-1.88-.026,1.551,1.551,0,0,1-1.224-1.3.317.317,0,0,0-.307-.3c-.386-.062-.771-.141-1.16-.175a19.1,19.1,0,0,0-9.605,1.344A.987.987,0,0,0,1,24.74c-.625.394-1.007-.044-1-.617.026-3.077.012-6.155.012-9.233q0-2.991,0-5.982a1.644,1.644,0,0,1,.013-.344.516.516,0,0,1,.53-.454.515.515,0,0,1,.527.456,1.934,1.934,0,0,1,.012.379q0,7.054,0,14.108V23.5c.429-.148.816-.288,1.207-.415a19.076,19.076,0,0,1,6.879-.9c1.009.049,2.013.189,3.018.305a1.975,1.975,0,0,1,.55.194.793.793,0,0,1,.508.823.47.47,0,0,0,.41.552,8.806,8.806,0,0,0,1.434.01.426.426,0,0,0,.406-.478.9.9,0,0,1,.791-1.012,13.375,13.375,0,0,1,2.037-.342,20.957,20.957,0,0,1,7.3.6c.673.189,1.333.421,2.044.647" transform="translate(0 -5.246)" fill="#183887"/>
    <path id="Path_96" data-name="Path 96" d="M40.324,15.47q0,2.5,0,5.009a1.486,1.486,0,0,1-.016.344.534.534,0,0,1-1.051.006,1.285,1.285,0,0,1-.016-.309q0-5.044,0-10.088a1.8,1.8,0,0,1,.008-.276A.541.541,0,0,1,39.8,9.68a.532.532,0,0,1,.518.47,1.591,1.591,0,0,1,.01.31q0,2.5,0,5.009" transform="translate(-25.397 -6.264)" fill="#183887"/>
    <path id="Path_97" data-name="Path 97" d="M15.15,29.928a8.557,8.557,0,0,1,4.049.956c.248.129.437.33.343.6a.951.951,0,0,1-.431.428c-.088.051-.271-.011-.388-.069a7.368,7.368,0,0,0-6.871.007.537.537,0,0,1-.769-.209.527.527,0,0,1,.282-.746,8.582,8.582,0,0,1,3.785-.968" transform="translate(-7.131 -19.37)" fill="#183887"/>
    <path id="Path_98" data-name="Path 98" d="M15.2,17.376a8.4,8.4,0,0,1,3.948.936c.379.2.5.475.353.773s-.454.376-.828.189a7.354,7.354,0,0,0-6.808.017.541.541,0,0,1-.791-.216.532.532,0,0,1,.3-.739,8.685,8.685,0,0,1,3.823-.961" transform="translate(-7.131 -11.246)" fill="#183887"/>
    <path id="Path_99" data-name="Path 99" d="M15.229,11.1a8.384,8.384,0,0,1,3.923.936c.379.2.5.477.353.773s-.455.375-.828.188a7.356,7.356,0,0,0-6.809.017.541.541,0,0,1-.791-.215.531.531,0,0,1,.3-.739,8.691,8.691,0,0,1,3.849-.961" transform="translate(-7.131 -7.185)" fill="#183887"/>
    <path id="Path_100" data-name="Path 100" d="M54.685,12.553c.012.436-.389.648-.837.466a12.981,12.981,0,0,0-1.706-.64,7.344,7.344,0,0,0-5.069.588c-.14.067-.333.163-.447.115a.89.89,0,0,1-.445-.407.439.439,0,0,1,.283-.589,16.161,16.161,0,0,1,2.133-.767,8.049,8.049,0,0,1,5.665.7c.321.164.417.29.424.532" transform="translate(-29.865 -7.177)" fill="#183887"/>
    <path id="Path_101" data-name="Path 101" d="M50.293,17.377a8.467,8.467,0,0,1,4,.939c.377.2.5.478.339.778s-.453.366-.832.177a7.342,7.342,0,0,0-6.776.011.559.559,0,0,1-.8-.181c-.156-.3-.037-.595.332-.784a8.656,8.656,0,0,1,3.741-.939" transform="translate(-29.871 -11.247)" fill="#183887"/>
    <path id="Path_102" data-name="Path 102" d="M19.556,24.977c0,.472-.331.739-.66.653a1.734,1.734,0,0,1-.316-.134,7.353,7.353,0,0,0-6.624.009c-.143.066-.335.175-.445.128a.936.936,0,0,1-.474-.422.448.448,0,0,1,.3-.585,16.339,16.339,0,0,1,2.135-.763,7.97,7.97,0,0,1,5.661.719,1.884,1.884,0,0,1,.424.395" transform="translate(-7.122 -15.298)" fill="#183887"/>
    <path id="Path_103" data-name="Path 103" d="M50.348,23.65a8.42,8.42,0,0,1,3.945.94c.377.2.5.479.339.778s-.452.365-.831.176a7.346,7.346,0,0,0-6.776.011.56.56,0,0,1-.805-.18c-.155-.3-.036-.594.334-.784a8.69,8.69,0,0,1,3.794-.941" transform="translate(-29.871 -15.307)" fill="#183887"/>
    <path id="Path_104" data-name="Path 104" d="M50.484,29.854a8.72,8.72,0,0,1,3.851.977.552.552,0,0,1,.354.638.482.482,0,0,1-.489.411,1.188,1.188,0,0,1-.483-.158,7.14,7.14,0,0,0-3.538-.762,7.705,7.705,0,0,0-3.118.8.872.872,0,0,1-.422.112.487.487,0,0,1-.464-.439.533.533,0,0,1,.326-.588A8.16,8.16,0,0,1,49.112,30c.454-.069.914-.1,1.372-.145" transform="translate(-29.88 -19.322)" fill="#183887"/>
  </g>
</svg>
