<svg xmlns="http://www.w3.org/2000/svg" xmlns:xlink="http://www.w3.org/1999/xlink" width="22.858" height="20" viewBox="0 0 22.858 20">
  <defs>
    <clipPath id="clip-path">
      <rect id="Rectangle_71" data-name="Rectangle 71" width="22.858" height="20" fill="#183887"/>
    </clipPath>
  </defs>
  <g id="Group_152" data-name="Group 152" clip-path="url(#clip-path)">
    <path id="Path_124" data-name="Path 124" d="M0,.311a.626.626,0,0,1,.6-.3q3.918.007,7.836,0a1.1,1.1,0,0,1,.286.031.459.459,0,0,1-.077.9A2.228,2.228,0,0,1,8.4.948H.938V12.869h.249c2.091,0,4.182,0,6.273,0a3.117,3.117,0,0,1,2.069.481v-.336q0-5.247,0-10.492A2.381,2.381,0,0,1,11.175.125a2.265,2.265,0,0,1,.676-.118Q15.681-.007,19.508,0c.343,0,.5.182.505.562q0,3.069,0,6.138c0,.41,0,.819,0,1.228,0,.369-.176.587-.465.585s-.471-.224-.471-.585q0-3.349,0-6.7v-.3H12.038a1.453,1.453,0,0,0-1.565,1.556q0,6.228,0,12.456c0,.223,0,.446,0,.669,0,.411-.175.58-.588.58H2.2c-.535,0-1.071-.008-1.607,0a.6.6,0,0,1-.6-.306ZM.937,15.242H9.526A2.457,2.457,0,0,0,9.49,14.9a1.411,1.411,0,0,0-1.468-1.088q-3.435-.008-6.872,0c-.07,0-.141.011-.213.017Z" fill="#183887"/>
    <path id="Path_125" data-name="Path 125" d="M16.742,20c-.255-.044-.512-.079-.765-.133A5.706,5.706,0,1,1,22.8,13.512c.018.124.039.247.059.371v.8a1.625,1.625,0,0,0-.043.193,5.684,5.684,0,0,1-4.1,4.885c-.383.107-.782.158-1.174.235Zm.4-10.489a4.774,4.774,0,1,0,4.773,4.775,4.788,4.788,0,0,0-4.773-4.775" fill="#183887"/>
    <path id="Path_126" data-name="Path 126" d="M15.022,6.651H12.971c-.347,0-.557-.18-.556-.468s.215-.465.561-.465q2.073,0,4.147,0a.473.473,0,0,1,.5.38.454.454,0,0,1-.291.518.845.845,0,0,1-.262.033c-.683,0-1.367,0-2.051,0" fill="#183887"/>
    <path id="Path_127" data-name="Path 127" d="M5.046,7.627H7.1c.336,0,.534.176.534.462a.472.472,0,0,1-.533.471q-2.074,0-4.147,0a.478.478,0,0,1-.536-.469c0-.285.2-.464.535-.465.7,0,1.4,0,2.1,0" fill="#183887"/>
    <path id="Path_128" data-name="Path 128" d="M5.046,5.718c.7,0,1.4,0,2.1,0a.471.471,0,0,1,.48.355.457.457,0,0,1-.244.523.646.646,0,0,1-.258.051q-2.1,0-4.191,0a.468.468,0,1,1,0-.931c.706,0,1.412,0,2.118,0" fill="#183887"/>
    <path id="Path_129" data-name="Path 129" d="M5.022,3.809c.691,0,1.382,0,2.073,0a.484.484,0,0,1,.53.378.457.457,0,0,1-.394.547,1.981,1.981,0,0,1-.267.012q-1.95,0-3.9,0c-.052,0-.1,0-.156,0a.469.469,0,1,1,.019-.936c.7-.006,1.4,0,2.1,0" fill="#183887"/>
    <path id="Path_130" data-name="Path 130" d="M15.027,4.749c-.661,0-1.323,0-1.984,0a1.384,1.384,0,0,1-.266-.019.449.449,0,0,1-.361-.424.456.456,0,0,1,.314-.462.62.62,0,0,1,.2-.033c1.4,0,2.794,0,4.191,0a.473.473,0,0,1,.512.4.457.457,0,0,1-.484.531c-.528.012-1.055.006-1.583.007h-.535" fill="#183887"/>
    <path id="Path_131" data-name="Path 131" d="M5.021,10.464H3.059a1.682,1.682,0,0,1-.266-.015.46.46,0,0,1-.058-.891A.929.929,0,0,1,3,9.526q2.029,0,4.058,0a1.17,1.17,0,0,1,.133,0,.467.467,0,0,1,.443.47.445.445,0,0,1-.45.457c-.356.015-.712.008-1.069.009s-.728,0-1.092,0" fill="#183887"/>
    <path id="Path_132" data-name="Path 132" d="M17.615,16.2c.173,0,.32,0,.466,0a.465.465,0,1,1,0,.93q-.936.01-1.873,0a.466.466,0,1,1,.013-.931c.449-.013.449-.013.449-.465V13.327c-.156,0-.288,0-.419,0a.473.473,0,1,1-.007-.94c.253-.007.5,0,.758,0,.453,0,.61.162.611.625q0,1.451,0,2.9V16.2" fill="#183887"/>
    <path id="Path_133" data-name="Path 133" d="M17.135,10.963a.464.464,0,1,1-.454.479.46.46,0,0,1,.454-.479" fill="#183887"/>
  </g>
</svg>
