<svg xmlns="http://www.w3.org/2000/svg" width="34.994" height="35" viewBox="0 0 34.994 35">
  <g id="Group_399" data-name="Group 399" transform="translate(-1136 -982.66)">
    <path id="Path_9" data-name="Path 9" d="M15.391,2.535H2.615V32.5H3.5q3.848,0,7.695,0c1.023,0,1.606.45,1.621,1.225s-.579,1.27-1.574,1.271c-2.859,0-5.718.012-8.577,0A2.515,2.515,0,0,1,.006,32.378Q-.005,17.5.006,2.621A2.5,2.5,0,0,1,2.668.01c4.6-.012,9.19-.019,13.786.017a2.048,2.048,0,0,1,1.269.5q3.729,3.546,7.368,7.18a2.075,2.075,0,0,1,.537,1.307c.053,2.315.028,4.634.022,6.95,0,.964-.516,1.547-1.315,1.525-.77-.021-1.242-.581-1.246-1.512-.008-1.952,0-3.9,0-5.979H21.659c-1.175,0-2.35.007-3.527,0a2.546,2.546,0,0,1-2.738-2.7c-.009-1.561,0-3.12,0-4.765m5.54,4.928L18.014,4.615V7.463Z" transform="translate(1136 982.659)" fill="#a9277c"/>
    <path id="Path_10" data-name="Path 10" d="M30.7,15.348a3.763,3.763,0,0,1-1.079,2.885q-5.281,5.288-10.579,10.559a3.2,3.2,0,0,1-1.3.743c-1.371.411-2.762.756-4.151,1.1a1.182,1.182,0,0,1-1.537-1.519c.358-1.461.745-2.915,1.173-4.358a2.594,2.594,0,0,1,.636-1.041q5.318-5.355,10.674-10.671a3.482,3.482,0,0,1,4.046-.722A3.306,3.306,0,0,1,30.7,15.348m-6.284,1.411L18,23.164l1.519,1.594L25.959,18.3l-1.546-1.542m-9.68,11.224c1.2-.49,2.451-.274,3.1-1.274-.6-.657-1.158-1.272-1.728-1.895-1.1.744-.882,1.982-1.371,3.169M26.04,14.89l1.717,1.822A1.283,1.283,0,1,0,26.04,14.89" transform="translate(1140.298 986.955)" fill="#a9277c"/>
    <path id="Path_11" data-name="Path 11" d="M11.044,16.351q-2.772,0-5.545,0c-.936,0-1.466-.411-1.489-1.132-.024-.75.527-1.2,1.491-1.2q5.509,0,11.018,0c.946,0,1.466.4,1.49,1.131.023.747-.532,1.2-1.492,1.2q-2.737.005-5.473,0" transform="translate(1136.668 986.233)" fill="#a9277c"/>
    <path id="Path_12" data-name="Path 12" d="M9.869,18.018c1.46,0,2.919,0,4.377,0,.905,0,1.445.464,1.428,1.194-.017.7-.542,1.136-1.409,1.139q-4.415.007-8.829,0c-.908,0-1.444-.462-1.426-1.195.018-.706.533-1.133,1.408-1.136,1.484-.007,2.967,0,4.451,0" transform="translate(1136.668 987.253)" fill="#a9277c"/>
    <path id="Path_13" data-name="Path 13" d="M8.155,10.013c.9,0,1.8-.01,2.7,0a1.171,1.171,0,1,1,.014,2.326q-2.774.019-5.545,0a1.172,1.172,0,1,1-.014-2.327c.948-.015,1.9,0,2.845,0" transform="translate(1136.668 985.211)" fill="#a9277c"/>
  </g>
</svg>
