<svg id="report" xmlns="http://www.w3.org/2000/svg" xmlns:xlink="http://www.w3.org/1999/xlink" width="32.838" height="43.168" viewBox="0 0 32.838 43.168">
  <defs>
    <clipPath id="clip-path">
      <rect id="Rectangle_59" data-name="Rectangle 59" width="32.838" height="43.168" fill="#fff"/>
    </clipPath>
  </defs>
  <g id="Group_106" data-name="Group 106" clip-path="url(#clip-path)">
    <path id="Path_85" data-name="Path 85" d="M32.836,21.536q0,8.047,0,16.095A5.114,5.114,0,0,1,27.7,43.16q-11.29.013-22.581,0A5.187,5.187,0,0,1,0,37.654Q0,21.583,0,5.513A5.186,5.186,0,0,1,5.118.005q11.29-.01,22.581,0c2.961,0,5.131,2.339,5.135,5.533q.012,8,0,16m-2.844.1q0-8.023,0-16.045a2.245,2.245,0,0,0-2.338-2.516q-11.246,0-22.49,0A2.239,2.239,0,0,0,2.847,5.562q0,16.021,0,32.042a2.24,2.24,0,0,0,2.314,2.492H27.606a2.256,2.256,0,0,0,2.386-2.562q0-7.95,0-15.9" transform="translate(0 0)" fill="#fff"/>
    <path id="Path_86" data-name="Path 86" d="M17.841,7.148q4.6,0,9.19,0a1.521,1.521,0,0,1,1.427,2.085,1.462,1.462,0,0,1-1.493.982q-5.777,0-11.555,0h-6.6a1.539,1.539,0,1,1-.023-3.07h9.057" transform="translate(-1.434 -0.977)" fill="#fff"/>
    <path id="Path_87" data-name="Path 87" d="M17.864,14.292c3.063,0,6.127-.005,9.19,0a1.523,1.523,0,0,1,1.4,2.109,1.456,1.456,0,0,1-1.464.957q-5.041,0-10.083,0c-2.751,0-5.5.005-8.253,0A1.522,1.522,0,0,1,7.255,15.25a1.447,1.447,0,0,1,1.463-.957q4.574,0,9.146,0" transform="translate(-1.433 -1.953)" fill="#fff"/>
    <path id="Path_88" data-name="Path 88" d="M17.83,24.507q-4.574,0-9.146,0a1.518,1.518,0,0,1-1.423-2.118,1.433,1.433,0,0,1,1.465-.954q5.62.009,11.242,0c2.365,0,4.729-.008,7.094,0a1.515,1.515,0,0,1,1.378,2.115,1.438,1.438,0,0,1-1.465.956c-3.049-.008-6.1,0-9.146,0" transform="translate(-1.433 -2.929)" fill="#fff"/>
    <path id="Path_89" data-name="Path 89" d="M12.486,28.58c1.264,0,2.528,0,3.791,0a1.535,1.535,0,1,1-.022,3.069q-3.746,0-7.493,0a1.537,1.537,0,1,1,.022-3.07h3.7" transform="translate(-1.434 -3.905)" fill="#fff"/>
  </g>
</svg>
