<svg id="review" xmlns="http://www.w3.org/2000/svg" xmlns:xlink="http://www.w3.org/1999/xlink" width="59.146" height="43.168" viewBox="0 0 59.146 43.168">
  <defs>
    <clipPath id="clip-path">
      <rect id="Rectangle_61" data-name="Rectangle 61" width="59.146" height="43.168" fill="#fff"/>
    </clipPath>
  </defs>
  <g id="Group_110" data-name="Group 110" clip-path="url(#clip-path)">
    <path id="Path_93" data-name="Path 93" d="M26.269,9.134a6.968,6.968,0,0,1,6.571,0c.1-.779.154-1.526.3-2.251a8.47,8.47,0,0,1,6.7-6.77,8.065,8.065,0,0,1,8.5,4.53c2.971,5.931,5.965,11.849,8.91,17.795,1.939,3.914,2.578,7.983,1.026,12.254A12.278,12.278,0,0,1,45.257,43.02c-5.355-.655-9.809-5.36-10.608-11.214-.088-.644-.152-1.293-.194-1.943a5.086,5.086,0,0,0-4.814-4.869,5.006,5.006,0,0,0-4.916,4.8,14.167,14.167,0,0,1-3.6,9.317c-3.543,3.759-7.8,4.981-12.513,3.344S1.047,37.16.185,31.844a13.06,13.06,0,0,1,1.14-7.96c3.042-6.22,6.15-12.4,9.188-18.623a9.3,9.3,0,0,1,3.7-4.233C19.54-2,25.969,2,26.239,8.5c.008.186.018.373.03.637M46.783,39.541c4.96.025,9.013-4.3,9.045-9.644.032-5.4-3.97-9.809-8.929-9.84-5.027-.031-9.088,4.3-9.1,9.714s3.984,9.744,8.985,9.769m-34.486,0c4.963.033,9.018-4.274,9.064-9.624.046-5.4-3.949-9.816-8.909-9.859-5-.042-9.084,4.268-9.12,9.629C3.3,35.132,7.277,39.508,12.3,39.541m9.679-18.106c.028-.22.047-.337.057-.455q.288-3.833.572-7.667c.114-1.55.306-3.1.3-4.652a5.11,5.11,0,0,0-3.8-4.959,4.806,4.806,0,0,0-5.419,2.714q-2.511,5.049-5.029,10.1c-.1.193-.181.391-.3.65,5.375-1.626,9.875-.205,13.618,4.274m28.778-4.293a.6.6,0,0,0-.019-.148C48.929,13.368,47.157,9.722,45.3,6.128a4.649,4.649,0,0,0-5.665-2.3,5.276,5.276,0,0,0-3.4,5.113c.217,3.1.455,6.2.687,9.3.078,1.034.165,2.069.257,3.2,3.763-4.489,8.267-5.905,13.578-4.3M33.9,22.731a1.432,1.432,0,0,0,.033-.239c-.187-2.383-.349-4.769-.573-7.149a3.808,3.808,0,0,0-7.594.1c-.118,1.317-.215,2.635-.313,3.953-.082,1.093-.153,2.188-.235,3.37a7.8,7.8,0,0,1,8.683-.038" transform="translate(0 0)" fill="#fff"/>
  </g>
</svg>
